<?xml version="1.0" encoding="utf-8"?>
<!-- Generator: Adobe Illustrator 24.0.1, SVG Export Plug-In . SVG Version: 6.00 Build 0)  -->
<svg version="1.1" id="Layer_1" xmlns="http://www.w3.org/2000/svg" xmlns:xlink="http://www.w3.org/1999/xlink" x="0px" y="0px"
	 viewBox="0 0 40 40" style="enable-background:new 0 0 40 40;" xml:space="preserve">
<style type="text/css">
	.st0{opacity:0.15;fill:#7660FD;}
	.st1{fill:#7660FD;}
</style>
<path class="st0" d="M3.33,0h33.33C38.51,0,40,1.49,40,3.33v33.33c0,1.84-1.49,3.33-3.33,3.33H3.33C1.49,40,0,38.51,0,36.67V3.33
	C0,1.49,1.49,0,3.33,0z"/>
<g>
	<path class="st1" d="M26.05,34.02H13.95c-1.28,0-2.33-1.04-2.33-2.33V8.31c0-1.28,1.04-2.33,2.33-2.33h12.11
		c1.28,0,2.33,1.04,2.33,2.33v23.37C28.38,32.97,27.34,34.02,26.05,34.02z M13.95,6.92c-0.77,0-1.4,0.63-1.4,1.4v23.37
		c0,0.77,0.63,1.4,1.4,1.4h12.11c0.77,0,1.4-0.63,1.4-1.4V8.31c0-0.77-0.63-1.4-1.4-1.4H13.95z"/>
	<path class="st1" d="M23.45,9.43h-6.89c-0.67,0-1.21-0.54-1.21-1.21V6.45c0-0.26,0.21-0.47,0.47-0.47h8.38
		c0.26,0,0.47,0.21,0.47,0.47v1.77C24.66,8.89,24.11,9.43,23.45,9.43z M16.27,6.92v1.3c0,0.15,0.13,0.28,0.28,0.28h6.89
		c0.15,0,0.28-0.13,0.28-0.28v-1.3H16.27z"/>
	<path class="st1" d="M20,24.76c-3.68,0-6.67-2.99-6.67-6.67c0-3.68,2.99-6.67,6.67-6.67c3.68,0,6.67,2.99,6.67,6.67
		C26.67,21.77,23.68,24.76,20,24.76z M20,12.35c-3.17,0-5.74,2.58-5.74,5.74c0,3.17,2.58,5.74,5.74,5.74c3.17,0,5.74-2.58,5.74-5.74
		C25.74,14.92,23.17,12.35,20,12.35z"/>
	<path class="st1" d="M20,21.16c-2.33,0-4.56-0.33-6.12-0.92c-0.14-0.05-0.24-0.17-0.28-0.31c-0.18-0.61-0.26-1.23-0.26-1.85
		s0.09-1.24,0.26-1.85c0.04-0.14,0.15-0.26,0.28-0.31c1.56-0.58,3.79-0.92,6.12-0.92s4.56,0.33,6.12,0.92
		c0.14,0.05,0.24,0.17,0.28,0.31c0.18,0.61,0.27,1.23,0.27,1.85c0,0.62-0.09,1.24-0.27,1.85c-0.04,0.14-0.15,0.26-0.28,0.31
		C24.56,20.83,22.33,21.16,20,21.16z M14.43,19.45c1.45,0.5,3.46,0.78,5.57,0.78c2.11,0,4.13-0.28,5.57-0.78
		c0.11-0.45,0.17-0.91,0.17-1.36c0-0.45-0.06-0.91-0.17-1.36c-1.45-0.5-3.46-0.78-5.57-0.78s-4.12,0.28-5.57,0.78
		c-0.11,0.45-0.17,0.91-0.17,1.36S14.31,19,14.43,19.45z"/>
	<path class="st1" d="M20,24.76c-0.62,0-1.24-0.09-1.85-0.27c-0.14-0.04-0.26-0.15-0.31-0.28c-0.58-1.56-0.92-3.79-0.92-6.12
		s0.33-4.56,0.92-6.12c0.05-0.14,0.17-0.24,0.31-0.28c1.22-0.35,2.48-0.35,3.7,0c0.14,0.04,0.26,0.15,0.31,0.28
		c0.58,1.56,0.92,3.79,0.92,6.12s-0.33,4.56-0.92,6.12c-0.05,0.14-0.17,0.24-0.31,0.28C21.24,24.68,20.62,24.76,20,24.76z
		 M18.64,23.67c0.91,0.22,1.82,0.22,2.73,0c0.5-1.45,0.78-3.46,0.78-5.57s-0.28-4.12-0.78-5.57c-0.91-0.22-1.82-0.22-2.73,0
		c-0.5,1.45-0.78,3.46-0.78,5.57S18.14,22.22,18.64,23.67z"/>
	<path class="st1" d="M24.1,30.91H15.9c-0.26,0-0.47-0.21-0.47-0.47c0-0.26,0.21-0.47,0.47-0.47h8.19c0.26,0,0.47,0.21,0.47,0.47
		C24.56,30.7,24.35,30.91,24.1,30.91z"/>
	<path class="st1" d="M23.42,31.69c-0.11,0-0.22-0.04-0.3-0.11c-0.19-0.17-0.22-0.46-0.05-0.66l0.41-0.48l-0.41-0.48
		c-0.17-0.19-0.15-0.49,0.05-0.66c0.19-0.17,0.49-0.15,0.66,0.05l0.68,0.78c0.15,0.17,0.15,0.43,0,0.61l-0.68,0.78
		C23.68,31.64,23.55,31.69,23.42,31.69z"/>
	<path class="st1" d="M24.1,27.56H15.9c-0.26,0-0.47-0.21-0.47-0.47s0.21-0.47,0.47-0.47h8.19c0.26,0,0.47,0.21,0.47,0.47
		S24.35,27.56,24.1,27.56z"/>
	<path class="st1" d="M16.58,28.34c-0.13,0-0.26-0.05-0.35-0.16l-0.68-0.78c-0.15-0.17-0.15-0.43,0-0.61l0.68-0.78
		c0.17-0.19,0.46-0.22,0.66-0.05c0.19,0.17,0.22,0.46,0.05,0.66l-0.41,0.48l0.41,0.48c0.17,0.19,0.15,0.49-0.05,0.66
		C16.79,28.3,16.69,28.34,16.58,28.34z"/>
</g>
</svg>
