<?xml version="1.0" encoding="utf-8"?>
<!-- Generator: Adobe Illustrator 24.0.1, SVG Export Plug-In . SVG Version: 6.00 Build 0)  -->
<svg version="1.1" id="Layer_1" xmlns="http://www.w3.org/2000/svg" xmlns:xlink="http://www.w3.org/1999/xlink" x="0px" y="0px"
	 viewBox="0 0 40 40" style="enable-background:new 0 0 40 40;" xml:space="preserve">
<style type="text/css">
	.st0{opacity:0.15;fill:#56CFBC;enable-background:new    ;}
	.st1{fill:#56CFBC;}
</style>
<title>calculate</title>
<path class="st0" d="M3.33,0h33.34C38.51,0,40,1.49,40,3.33v33.34c0,1.84-1.49,3.33-3.33,3.33H3.33C1.49,40,0,38.51,0,36.67V3.33
	C0,1.49,1.49,0,3.33,0z"/>
<g>
	<path class="st1" d="M27.83,32.66H12.17c-1.02,0-1.85-0.83-1.85-1.85V9.19c0-1.02,0.83-1.85,1.85-1.85h15.66
		c1.02,0,1.85,0.83,1.85,1.85v21.62C29.68,31.83,28.85,32.66,27.83,32.66z M12.17,8.14c-0.58,0-1.05,0.47-1.05,1.05v21.62
		c0,0.58,0.47,1.05,1.05,1.05h15.66c0.58,0,1.05-0.47,1.05-1.05V9.19c0-0.58-0.47-1.05-1.05-1.05H12.17z"/>
	<path class="st1" d="M26.81,14.29H13.19c-0.44,0-0.8-0.36-0.8-0.8v-3.43c0-0.44,0.36-0.8,0.8-0.8h13.62c0.44,0,0.8,0.36,0.8,0.8
		v3.43C27.62,13.93,27.25,14.29,26.81,14.29z M13.19,10.05l0,3.44l13.62,0l0-3.44C26.81,10.05,13.19,10.05,13.19,10.05z"/>
	<path class="st1" d="M15.83,18.61h-3.04c-0.22,0-0.4-0.18-0.4-0.4v-2.09c0-0.22,0.18-0.4,0.4-0.4h3.04c0.22,0,0.4,0.18,0.4,0.4
		v2.09C16.23,18.44,16.05,18.61,15.83,18.61z M13.19,17.81h2.24v-1.29h-2.24V17.81z"/>
	<path class="st1" d="M21.52,18.61h-3.04c-0.22,0-0.4-0.18-0.4-0.4v-2.09c0-0.22,0.18-0.4,0.4-0.4h3.04c0.22,0,0.4,0.18,0.4,0.4
		v2.09C21.92,18.44,21.74,18.61,21.52,18.61z M18.88,17.81h2.24v-1.29h-2.24V17.81z"/>
	<path class="st1" d="M27.21,18.61h-3.04c-0.22,0-0.4-0.18-0.4-0.4v-2.09c0-0.22,0.18-0.4,0.4-0.4h3.04c0.22,0,0.4,0.18,0.4,0.4
		v2.09C27.62,18.44,27.44,18.61,27.21,18.61z M24.57,17.81h2.24v-1.29h-2.24V17.81z"/>
	<path class="st1" d="M15.39,22.73H12.8c-0.22,0-0.4-0.18-0.4-0.4V20c0-0.22,0.18-0.4,0.4-0.4h2.59c0.22,0,0.4,0.18,0.4,0.4v2.33
		C15.79,22.55,15.61,22.73,15.39,22.73z M13.2,21.93h1.79V20.4H13.2V21.93z"/>
	<path class="st1" d="M19.33,22.73h-2.59c-0.22,0-0.4-0.18-0.4-0.4V20c0-0.22,0.18-0.4,0.4-0.4h2.59c0.22,0,0.4,0.18,0.4,0.4v2.33
		C19.73,22.55,19.55,22.73,19.33,22.73z M17.14,21.93h1.79V20.4h-1.79V21.93z"/>
	<path class="st1" d="M23.26,22.73h-2.59c-0.22,0-0.4-0.18-0.4-0.4V20c0-0.22,0.18-0.4,0.4-0.4h2.59c0.22,0,0.4,0.18,0.4,0.4v2.33
		C23.66,22.55,23.48,22.73,23.26,22.73z M21.07,21.93h1.79V20.4h-1.79V21.93z"/>
	<path class="st1" d="M27.2,22.73h-2.59c-0.22,0-0.4-0.18-0.4-0.4V20c0-0.22,0.18-0.4,0.4-0.4h2.59c0.22,0,0.4,0.18,0.4,0.4v2.33
		C27.6,22.55,27.42,22.73,27.2,22.73z M25.01,21.93h1.79V20.4h-1.79V21.93z"/>
	<path class="st1" d="M15.39,26.85H12.8c-0.22,0-0.4-0.18-0.4-0.4v-2.33c0-0.22,0.18-0.4,0.4-0.4h2.59c0.22,0,0.4,0.18,0.4,0.4v2.33
		C15.79,26.67,15.61,26.85,15.39,26.85z M13.2,26.05h1.79v-1.53H13.2V26.05z"/>
	<path class="st1" d="M19.33,26.85h-2.59c-0.22,0-0.4-0.18-0.4-0.4v-2.33c0-0.22,0.18-0.4,0.4-0.4h2.59c0.22,0,0.4,0.18,0.4,0.4
		v2.33C19.73,26.67,19.55,26.85,19.33,26.85z M17.14,26.05h1.79v-1.53h-1.79V26.05z"/>
	<path class="st1" d="M23.26,26.85h-2.59c-0.22,0-0.4-0.18-0.4-0.4v-2.33c0-0.22,0.18-0.4,0.4-0.4h2.59c0.22,0,0.4,0.18,0.4,0.4
		v2.33C23.66,26.67,23.48,26.85,23.26,26.85z M21.07,26.05h1.79v-1.53h-1.79V26.05z"/>
	<path class="st1" d="M27.2,26.85h-2.59c-0.22,0-0.4-0.18-0.4-0.4v-2.33c0-0.22,0.18-0.4,0.4-0.4h2.59c0.22,0,0.4,0.18,0.4,0.4v2.33
		C27.6,26.67,27.42,26.85,27.2,26.85z M25.01,26.05h1.79v-1.53h-1.79V26.05z"/>
	<path class="st1" d="M15.39,30.97H12.8c-0.22,0-0.4-0.18-0.4-0.4v-2.33c0-0.22,0.18-0.4,0.4-0.4h2.59c0.22,0,0.4,0.18,0.4,0.4v2.33
		C15.79,30.79,15.61,30.97,15.39,30.97z M13.2,30.16h1.79v-1.53H13.2V30.16z"/>
	<path class="st1" d="M19.33,30.97h-2.59c-0.22,0-0.4-0.18-0.4-0.4v-2.33c0-0.22,0.18-0.4,0.4-0.4h2.59c0.22,0,0.4,0.18,0.4,0.4
		v2.33C19.73,30.79,19.55,30.97,19.33,30.97z M17.14,30.16h1.79v-1.53h-1.79V30.16z"/>
	<path class="st1" d="M23.26,30.97h-2.59c-0.22,0-0.4-0.18-0.4-0.4v-2.33c0-0.22,0.18-0.4,0.4-0.4h2.59c0.22,0,0.4,0.18,0.4,0.4
		v2.33C23.66,30.79,23.48,30.97,23.26,30.97z M21.07,30.16h1.79v-1.53h-1.79V30.16z"/>
	<path class="st1" d="M27.2,30.97h-2.59c-0.22,0-0.4-0.18-0.4-0.4v-2.33c0-0.22,0.18-0.4,0.4-0.4h2.59c0.22,0,0.4,0.18,0.4,0.4v2.33
		C27.6,30.79,27.42,30.97,27.2,30.97z M25.01,30.16h1.79v-1.53h-1.79V30.16z"/>
	<path class="st1" d="M16.54,12.8c-0.1,0-0.21-0.04-0.28-0.12c-0.16-0.16-0.16-0.41,0-0.57l1.27-1.27c0.16-0.16,0.41-0.16,0.57,0
		c0.16,0.16,0.16,0.41,0,0.57l-1.27,1.27C16.75,12.76,16.64,12.8,16.54,12.8z"/>
	<path class="st1" d="M21.49,12.8c-0.1,0-0.21-0.04-0.28-0.12c-0.16-0.16-0.16-0.41,0-0.57l1.27-1.27c0.16-0.16,0.41-0.16,0.57,0
		c0.16,0.16,0.16,0.41,0,0.57l-1.27,1.27C21.7,12.76,21.59,12.8,21.49,12.8z"/>
</g>
</svg>
