<svg id="Layer_1" data-name="Layer 1" xmlns="http://www.w3.org/2000/svg" viewBox="0 0 40 40"><defs><style>.cls-1,.cls-2{fill:#4b8fff;}.cls-1{opacity:0.15;}</style></defs><title>modeling</title><rect class="cls-1" width="40" height="40" rx="3.33"/><path class="cls-2" d="M29.85,8.8,10,8.94A1.51,1.51,0,0,0,8.69,10.6l.13,19a1.52,1.52,0,0,0,1.33,1.64l8-.05a.57.57,0,0,0,0-1.11l-7.95.06a.5.5,0,0,1-.44-.55l-.13-19A.5.5,0,0,1,10,10L29.86,9.9a.5.5,0,0,1,.44.55l.13,19A.5.5,0,0,1,30,30L22.06,30a.49.49,0,0,0-.43.55.5.5,0,0,0,.44.55L30,31.06a1.51,1.51,0,0,0,1.31-1.66l-.13-19A1.52,1.52,0,0,0,29.85,8.8Z"/><path class="cls-2" d="M13.89,27.65a.54.54,0,0,0,.54-.56l0-6a2.1,2.1,0,0,0,1.53-2V17.73a2.11,2.11,0,0,0-1.56-2l0-2.78a.55.55,0,1,0-1.1,0l0,2.78a2.11,2.11,0,0,0-1.53,2v1.32a2.09,2.09,0,0,0,1.56,2l0,6A.55.55,0,0,0,13.89,27.65Zm-1.06-8.57V17.75a1,1,0,0,1,1-1,1,1,0,0,1,1,1v1.32a1,1,0,0,1-2,0Z"/><path class="cls-2" d="M20.55,19.68l0-6.78a.56.56,0,0,0-1.11,0l.05,6.79a2.12,2.12,0,0,0-1.53,2v1.33a2.11,2.11,0,0,0,1.56,2v2a.56.56,0,0,0,1.11,0l0-2a2.09,2.09,0,0,0,1.53-2V21.69A2.1,2.1,0,0,0,20.55,19.68ZM21,23a1,1,0,0,1-2,0V21.72a1,1,0,1,1,2,0Z"/><path class="cls-2" d="M25.68,27a.55.55,0,0,0,1.1,0l0-4.38a2.09,2.09,0,0,0,1.53-2V19.28a2.11,2.11,0,0,0-1.56-2l0-4.42a.54.54,0,0,0-.55-.54.55.55,0,0,0-.55.55l0,4.42a2.09,2.09,0,0,0-1.53,2v1.32a2.09,2.09,0,0,0,1.56,2Zm-.49-6.39V19.3a1,1,0,0,1,2,0v1.32a1,1,0,0,1-2,0Z"/><path class="cls-2" d="M20,30a.52.52,0,0,0-.39.17.55.55,0,0,0-.16.39.55.55,0,0,0,.55.54.55.55,0,0,0,.39-.16.57.57,0,0,0,.16-.39.55.55,0,0,0-.16-.39A.59.59,0,0,0,20,30Z"/></svg>