<?xml version="1.0" encoding="utf-8"?>
<!-- Generator: Adobe Illustrator 24.0.1, SVG Export Plug-In . SVG Version: 6.00 Build 0)  -->
<svg version="1.1" id="Layer_1" xmlns="http://www.w3.org/2000/svg" xmlns:xlink="http://www.w3.org/1999/xlink" x="0px" y="0px"
	 viewBox="0 0 40 40" style="enable-background:new 0 0 40 40;" xml:space="preserve">
<style type="text/css">
	.st0{opacity:0.15;fill:#4B8FFF;enable-background:new    ;}
	.st1{fill:#4B8FFF;}
</style>
<title>2-level</title>
<path class="st0" d="M3.33,0h33.34C38.51,0,40,1.49,40,3.33v33.34c0,1.84-1.49,3.33-3.33,3.33H3.33C1.49,40,0,38.51,0,36.67V3.33
	C0,1.49,1.49,0,3.33,0z"/>
<g>
	<path class="st1" d="M20,24.98c-1.56,0-2.83-1.19-2.83-2.66c0-0.21,0.17-0.38,0.38-0.38s0.38,0.17,0.38,0.38
		c0,1.05,0.93,1.91,2.08,1.91c1.14,0,2.08-0.86,2.08-1.91c0-1.05-0.93-1.91-2.08-1.91c-1.56,0-2.83-1.19-2.83-2.66
		c0-1.47,1.27-2.66,2.83-2.66c1.56,0,2.83,1.19,2.83,2.66c0,0.21-0.17,0.38-0.38,0.38c-0.21,0-0.38-0.17-0.38-0.38
		c0-1.05-0.93-1.91-2.08-1.91c-1.14,0-2.08,0.86-2.08,1.91c0,1.05,0.93,1.91,2.08,1.91c1.56,0,2.83,1.19,2.83,2.66
		S21.56,24.98,20,24.98z"/>
	<path class="st1" d="M19.31,25.91c-0.21,0-0.38-0.17-0.38-0.38v-11c0-0.21,0.17-0.38,0.38-0.38s0.38,0.17,0.38,0.38v11
		C19.68,25.74,19.51,25.91,19.31,25.91z"/>
	<path class="st1" d="M20.69,25.91c-0.21,0-0.38-0.17-0.38-0.38v-11c0-0.21,0.17-0.38,0.38-0.38s0.38,0.17,0.38,0.38v11
		C21.07,25.74,20.9,25.91,20.69,25.91z"/>
	<path class="st1" d="M20,27.18c-3.94,0-7.15-3.21-7.15-7.15s3.21-7.15,7.15-7.15c3.94,0,7.15,3.21,7.15,7.15S23.94,27.18,20,27.18z
		 M20,13.64c-3.53,0-6.4,2.87-6.4,6.4c0,3.53,2.87,6.4,6.4,6.4c3.53,0,6.4-2.87,6.4-6.4C26.4,16.51,23.53,13.64,20,13.64z"/>
	<path class="st1" d="M20,28.74c-4.8,0-8.7-3.9-8.7-8.7c0-4.8,3.9-8.7,8.7-8.7c4.8,0,8.7,3.9,8.7,8.7
		C28.7,24.83,24.8,28.74,20,28.74z M20,12.08c-4.38,0-7.95,3.57-7.95,7.95c0,4.38,3.57,7.95,7.95,7.95c4.38,0,7.95-3.57,7.95-7.95
		C27.95,15.65,24.38,12.08,20,12.08z"/>
	<path class="st1" d="M11.29,12.44c-0.09,0-0.18-0.03-0.25-0.1l-1.61-1.47l-1.6,1.47c-0.15,0.14-0.39,0.13-0.53-0.02
		c-0.14-0.15-0.13-0.39,0.02-0.53l1.86-1.7c0.14-0.13,0.36-0.13,0.51,0l1.86,1.7c0.15,0.14,0.16,0.38,0.02,0.53
		C11.49,12.4,11.39,12.44,11.29,12.44z"/>
	<path class="st1" d="M9.43,14.52c-0.21,0-0.38-0.17-0.38-0.38v-1.32c0-0.21,0.17-0.38,0.38-0.38s0.38,0.17,0.38,0.38v1.32
		C9.81,14.35,9.64,14.52,9.43,14.52z"/>
	<path class="st1" d="M9.43,17.72c-0.21,0-0.38-0.17-0.38-0.38v-1.6c0-0.21,0.17-0.38,0.38-0.38s0.38,0.17,0.38,0.38v1.6
		C9.81,17.55,9.64,17.72,9.43,17.72z"/>
	<path class="st1" d="M9.43,20.63c-0.21,0-0.38-0.17-0.38-0.38v-1.32c0-0.21,0.17-0.38,0.38-0.38s0.38,0.17,0.38,0.38v1.32
		C9.81,20.46,9.64,20.63,9.43,20.63z"/>
	<path class="st1" d="M9.43,13.2c-0.21,0-0.38-0.17-0.38-0.38v-2.46c0-0.21,0.17-0.38,0.38-0.38s0.38,0.17,0.38,0.38v2.46
		C9.81,13.03,9.64,13.2,9.43,13.2z"/>
	<path class="st1" d="M30.57,30.08c-0.09,0-0.18-0.03-0.25-0.1l-1.86-1.7c-0.15-0.14-0.16-0.38-0.02-0.53
		c0.14-0.15,0.38-0.16,0.53-0.02l1.61,1.47l1.6-1.47c0.15-0.14,0.39-0.13,0.53,0.02c0.14,0.15,0.13,0.39-0.02,0.53l-1.86,1.7
		C30.75,30.04,30.66,30.08,30.57,30.08z"/>
	<path class="st1" d="M30.57,27.62c-0.21,0-0.38-0.17-0.38-0.38v-1.32c0-0.21,0.17-0.38,0.38-0.38c0.21,0,0.38,0.17,0.38,0.38v1.32
		C30.94,27.45,30.77,27.62,30.57,27.62z"/>
	<path class="st1" d="M30.57,24.7c-0.21,0-0.38-0.17-0.38-0.38v-1.6c0-0.21,0.17-0.38,0.38-0.38c0.21,0,0.38,0.17,0.38,0.38v1.6
		C30.94,24.53,30.77,24.7,30.57,24.7z"/>
	<path class="st1" d="M30.57,21.5c-0.21,0-0.38-0.17-0.38-0.38v-1.32c0-0.21,0.17-0.38,0.38-0.38c0.21,0,0.38,0.17,0.38,0.38v1.32
		C30.94,21.33,30.77,21.5,30.57,21.5z"/>
	<path class="st1" d="M30.57,30.08c-0.21,0-0.38-0.17-0.38-0.38v-2.46c0-0.21,0.17-0.38,0.38-0.38c0.21,0,0.38,0.17,0.38,0.38v2.46
		C30.94,29.91,30.77,30.08,30.57,30.08z"/>
</g>
</svg>
