<?xml version="1.0" encoding="utf-8"?>
<!-- Generator: Adobe Illustrator 24.0.1, SVG Export Plug-In . SVG Version: 6.00 Build 0)  -->
<svg version="1.1" id="Layer_1" xmlns="http://www.w3.org/2000/svg" xmlns:xlink="http://www.w3.org/1999/xlink" x="0px" y="0px"
	 viewBox="0 0 40 40" style="enable-background:new 0 0 40 40;" xml:space="preserve">
<style type="text/css">
	.st0{opacity:0.15;fill:#7660FD;enable-background:new    ;}
	.st1{fill:#7660FD;}
</style>
<title>qualitative analysis</title>
<path class="st0" d="M3.33,0h33.34C38.51,0,40,1.49,40,3.33v33.34c0,1.84-1.49,3.33-3.33,3.33H3.33C1.49,40,0,38.51,0,36.67V3.33
	C0,1.49,1.49,0,3.33,0z"/>
<g>
	<g>
		<g>
			<path class="st1" d="M19.25,11.7c-4.17,0-7.55,3.38-7.55,7.55s3.38,7.55,7.55,7.55s7.55-3.38,7.55-7.55
				C26.79,15.08,23.41,11.7,19.25,11.7z M19.25,12.42c2.22,0,4.3,1.08,5.57,2.9l-0.9,0.9c-0.22-0.13-0.47-0.2-0.72-0.2
				c-0.79,0-1.44,0.64-1.44,1.44c0,0.26,0.07,0.51,0.2,0.73l-2.35,2.35c-0.45-0.27-1.01-0.27-1.45,0l-1.63-1.63
				c0.13-0.22,0.2-0.47,0.2-0.73c0-0.79-0.64-1.44-1.43-1.44c-0.66,0-1.23,0.44-1.39,1.08h-1.33
				C13.26,14.67,16.03,12.42,19.25,12.42z M23.92,17.45c0,0.4-0.32,0.72-0.72,0.72s-0.72-0.32-0.72-0.72s0.32-0.72,0.72-0.72
				S23.92,17.05,23.92,17.45z M19.61,21.76c0,0.4-0.32,0.72-0.72,0.72s-0.72-0.32-0.72-0.72s0.32-0.72,0.72-0.72
				S19.61,21.36,19.61,21.76z M16.01,18.17c0,0.4-0.32,0.72-0.72,0.72c-0.4,0-0.72-0.32-0.72-0.72s0.32-0.72,0.72-0.72
				C15.69,17.45,16.01,17.77,16.01,18.17z M22.57,25.21c-1.01,0.56-2.16,0.86-3.32,0.86c-3.77,0-6.82-3.05-6.83-6.82
				c0-0.24,0.01-0.49,0.04-0.73h1.45c0.16,0.63,0.73,1.08,1.39,1.08c0.26,0,0.51-0.07,0.73-0.2l1.63,1.63
				c-0.13,0.22-0.2,0.47-0.2,0.73c0,0.79,0.64,1.44,1.44,1.44c0.79,0,1.44-0.64,1.44-1.44c0-0.26-0.07-0.51-0.2-0.73l2.35-2.35
				c0.22,0.13,0.47,0.2,0.73,0.2c0.79,0,1.44-0.64,1.44-1.44c0-0.26-0.07-0.51-0.2-0.73l0.78-0.78
				C27.05,19.23,25.86,23.39,22.57,25.21z"/>
		</g>
	</g>
	<g>
		<g>
			<path class="st1" d="M28.23,13.86c0.65,0,1.22-0.45,1.39-1.08h2.21v-0.72h-2.21c-0.16-0.63-0.73-1.08-1.39-1.08
				c-0.79,0-1.44,0.64-1.44,1.44c0,0.26,0.07,0.51,0.2,0.73l-0.63,0.63c-3.02-3.94-8.66-4.68-12.59-1.66s-4.68,8.66-1.66,12.59
				c2.85,3.71,8.08,4.62,12.01,2.07l1.08,1.08l0.51,0.51l2.89,2.89c0.74,0.74,1.93,0.74,2.66,0c0.74-0.74,0.74-1.93,0-2.66
				l-2.89-2.89l-0.51-0.51l-1.08-1.08c1.92-2.96,1.92-6.78,0-9.75l0.72-0.72C27.72,13.78,27.97,13.85,28.23,13.86z M28.23,11.7
				c0.4,0,0.72,0.32,0.72,0.72s-0.32,0.72-0.72,0.72s-0.72-0.32-0.72-0.72S27.83,11.7,28.23,11.7z M30.76,29.11
				c0.46,0.45,0.47,1.19,0.02,1.65c-0.45,0.46-1.19,0.47-1.65,0.02c-0.01-0.01-0.01-0.01-0.02-0.02l-2.89-2.89l1.65-1.65
				L30.76,29.11z M27.36,25.71l-1.65,1.65l-0.99-0.99c0.05-0.04,0.1-0.08,0.15-0.12c0.05-0.04,0.11-0.09,0.16-0.13
				c0.08-0.07,0.16-0.13,0.23-0.2c0.04-0.04,0.08-0.07,0.11-0.11c0.15-0.14,0.29-0.28,0.43-0.43c0.04-0.04,0.07-0.08,0.11-0.11
				c0.07-0.08,0.14-0.15,0.2-0.23c0.05-0.05,0.09-0.11,0.13-0.16c0.04-0.05,0.08-0.1,0.12-0.15L27.36,25.71z M25.97,24.04
				c-0.11,0.16-0.23,0.31-0.35,0.46c-0.04,0.04-0.07,0.09-0.11,0.13c-0.11,0.13-0.22,0.25-0.34,0.37c-0.05,0.05-0.1,0.1-0.16,0.16
				c-0.12,0.12-0.24,0.23-0.37,0.34c-0.04,0.04-0.08,0.08-0.13,0.11c-0.15,0.12-0.3,0.24-0.46,0.35c-3.72,2.66-8.89,1.8-11.55-1.92
				s-1.8-8.89,1.92-11.55s8.89-1.8,11.55,1.92C28.03,17.3,28.03,21.16,25.97,24.04z"/>
		</g>
	</g>
</g>
</svg>
