<?xml version="1.0" encoding="utf-8"?>
<!-- Generator: Adobe Illustrator 24.0.1, SVG Export Plug-In . SVG Version: 6.00 Build 0)  -->
<svg version="1.1" id="Layer_1" xmlns="http://www.w3.org/2000/svg" xmlns:xlink="http://www.w3.org/1999/xlink" x="0px" y="0px"
	 viewBox="0 0 40 40" style="enable-background:new 0 0 40 40;" xml:space="preserve">
<style type="text/css">
	.st0{opacity:0.15;fill:#56CFBC;enable-background:new    ;}
	.st1{fill:#56CFBC;}
</style>
<title>Weighted and dynam..</title>
<path class="st0" d="M3.33,0h33.34C38.51,0,40,1.49,40,3.33v33.34c0,1.84-1.49,3.33-3.33,3.33H3.33C1.49,40,0,38.51,0,36.67V3.33
	C0,1.49,1.49,0,3.33,0z"/>
<g>
	<path class="st1" d="M30.68,22.85c-0.39,0-0.71,0.32-0.71,0.71v4.27h-4.69l0.92-0.92c0.28-0.28,0.28-0.73,0-1.01
		c-0.28-0.28-0.73-0.28-1.01,0l-2.14,2.14c-0.28,0.28-0.28,0.73,0,1.01l2.14,2.14c0.28,0.28,0.73,0.28,1.01,0
		c0.28-0.28,0.28-0.73,0-1.01l-0.92-0.92h5.4c0.39,0,0.71-0.32,0.71-0.71v-4.98C31.39,23.17,31.07,22.85,30.68,22.85z"/>
	<path class="st1" d="M9.32,17.16c0.39,0,0.71-0.32,0.71-0.71v-4.27h4.69L13.8,13.1c-0.28,0.28-0.28,0.73,0,1.01
		c0.28,0.28,0.73,0.28,1.01,0l2.14-2.14c0.28-0.28,0.28-0.73,0-1.01l-2.14-2.14c-0.28-0.28-0.73-0.28-1.01,0
		c-0.28,0.28-0.28,0.73,0,1.01l0.92,0.92h-5.4c-0.39,0-0.71,0.32-0.71,0.71v4.99C8.61,16.84,8.93,17.16,9.32,17.16z"/>
	<path class="st1" d="M15.02,18.58c-3.53,0-6.41,2.87-6.41,6.41c0,3.53,2.87,6.41,6.41,6.41s6.41-2.87,6.41-6.41
		C21.42,21.45,18.55,18.58,15.02,18.58z M15.02,29.97c-2.75,0-4.98-2.24-4.98-4.98c0-2.75,2.24-4.98,4.98-4.98
		c2.75,0,4.98,2.24,4.98,4.98C20,27.74,17.77,29.97,15.02,29.97z"/>
	<path class="st1" d="M24.98,21.43c3.53,0,6.41-2.87,6.41-6.41c0-3.53-2.87-6.41-6.41-6.41s-6.41,2.87-6.41,6.41
		C18.57,18.55,21.45,21.43,24.98,21.43z M24.98,10.04c2.75,0,4.98,2.24,4.98,4.98c0,2.75-2.24,4.98-4.98,4.98S20,17.77,20,15.02
		C20,12.27,22.23,10.04,24.98,10.04z"/>
</g>
</svg>
