<?xml version="1.0" encoding="utf-8"?>
<!-- Generator: Adobe Illustrator 24.0.1, SVG Export Plug-In . SVG Version: 6.00 Build 0)  -->
<svg version="1.1" id="Layer_1" xmlns="http://www.w3.org/2000/svg" xmlns:xlink="http://www.w3.org/1999/xlink" x="0px" y="0px"
	 viewBox="0 0 40 40" style="enable-background:new 0 0 40 40;" xml:space="preserve">
<style type="text/css">
	.st0{opacity:0.15;fill:#7660FD;enable-background:new    ;}
	.st1{fill:#7660FD;}
</style>
<title>compare</title>
<path class="st0" d="M3.33,0h33.34C38.51,0,40,1.49,40,3.33v33.34c0,1.84-1.49,3.33-3.33,3.33H3.33C1.49,40,0,38.51,0,36.67V3.33
	C0,1.49,1.49,0,3.33,0z"/>
<g id="XMLID_1_">
	<path id="XMLID_7_" class="st1" d="M18.82,23.86c-0.13-0.13-0.31-0.22-0.52-0.22s-0.39,0.09-0.52,0.22
		c-0.13,0.13-0.22,0.31-0.22,0.52s0.09,0.39,0.22,0.52l0,0l2.18,2.14h-4.75c-1.09,0-1.79-0.39-2.22-1.26
		c-0.44-0.92-0.52-2.22-0.52-3.14V15.4c0.78-0.13,1.53-0.57,2.09-1.18c0.61-0.7,0.96-1.57,0.96-2.53c0-2.05-1.7-3.75-3.75-3.75
		s-3.75,1.7-3.75,3.75c0,0.92,0.35,1.79,0.92,2.48c0.52,0.61,1.22,1,2,1.18v7.24c0,0.78,0,2.27,0.52,3.49
		c0.65,1.57,1.92,2.4,3.7,2.4h4.79l-2.14,2.14c-0.31,0.31-0.31,0.78,0,1.05l0,0c0.13,0.13,0.35,0.22,0.52,0.22
		c0.22,0,0.39-0.09,0.52-0.22l3.09-3.05c0.22-0.22,0.35-0.52,0.35-0.83c0-0.31-0.13-0.61-0.35-0.83L18.82,23.86L18.82,23.86z
		 M11.76,14.01c-1.22,0-2.27-1-2.27-2.27s1-2.27,2.27-2.27s2.27,1,2.27,2.27S12.98,14.01,11.76,14.01z M29.02,24.55v-7.24
		c0-0.78,0-2.27-0.52-3.49c-0.65-1.57-1.92-2.4-3.7-2.4H20l2.14-2.14c0.31-0.31,0.31-0.78,0-1.05l0,0C22,8.12,21.79,8.04,21.61,8.04
		c-0.22,0-0.39,0.09-0.52,0.22L18,11.3c-0.22,0.22-0.35,0.52-0.35,0.83c0,0.31,0.13,0.61,0.35,0.83l3.18,3.18
		c0.13,0.13,0.31,0.22,0.52,0.22s0.39-0.09,0.52-0.22c0.13-0.13,0.22-0.31,0.22-0.52s-0.09-0.39-0.22-0.52l0,0L20,12.96h4.79
		c1.09,0,1.79,0.39,2.22,1.26c0.44,0.92,0.52,2.22,0.52,3.14v7.24c-0.78,0.13-1.53,0.57-2.09,1.18c-0.61,0.7-0.96,1.57-0.96,2.53
		c0,2.05,1.7,3.75,3.75,3.75s3.75-1.7,3.75-3.75c0-0.92-0.35-1.79-0.92-2.48C30.55,25.16,29.81,24.73,29.02,24.55z M28.24,30.48
		c-1.22,0-2.27-1-2.27-2.27c0-1.26,1-2.27,2.27-2.27s2.27,1,2.27,2.27S29.5,30.48,28.24,30.48z"/>
</g>
</svg>
