<?xml version="1.0" encoding="utf-8"?>
<!-- Generator: Adobe Illustrator 24.0.1, SVG Export Plug-In . SVG Version: 6.00 Build 0)  -->
<svg version="1.1" id="Layer_1" xmlns="http://www.w3.org/2000/svg" xmlns:xlink="http://www.w3.org/1999/xlink" x="0px" y="0px"
	 viewBox="0 0 64 64" style="enable-background:new 0 0 64 64;" xml:space="preserve">
<style type="text/css">
	.st0{fill:#616C84;}
	.st1{fill:#73C9BB;}
</style>
<g>
	<path class="st0" d="M59.54,2.67H4.46c-0.99,0-1.79,0.8-1.79,1.79v55.07c0,0.99,0.8,1.79,1.79,1.79h55.07
		c0.99,0,1.79-0.8,1.79-1.79V4.46C61.33,3.47,60.53,2.67,59.54,2.67z M57.74,30.21H33.79V6.26h23.95V30.21z M6.26,6.26h23.95v23.95
		H6.26V6.26z M6.26,33.79h23.95v23.95H6.26V33.79z M57.74,57.74H33.79V33.79h23.95V57.74z"/>
	<path class="st1" d="M45.77,42.5c1.08,0,1.95-0.87,1.95-1.95c0-1.08-0.87-1.95-1.95-1.95c-1.07,0-1.95,0.87-1.95,1.95
		C43.82,41.63,44.69,42.5,45.77,42.5z"/>
	<path class="st1" d="M45.77,49.03c-1.07,0-1.95,0.87-1.95,1.95c0,1.08,0.87,1.95,1.95,1.95c1.08,0,1.95-0.87,1.95-1.95
		C47.72,49.91,46.84,49.03,45.77,49.03z"/>
	<path class="st1" d="M40.87,47.56h9.8c0.99,0,1.79-0.8,1.79-1.79c0-0.99-0.8-1.79-1.79-1.79h-9.8c-0.99,0-1.79,0.8-1.79,1.79
		C39.07,46.76,39.88,47.56,40.87,47.56z"/>
	<path class="st1" d="M40.83,20.02h9.87c0.99,0,1.79-0.8,1.79-1.79c0-0.99-0.8-1.79-1.79-1.79h-9.87c-0.99,0-1.79,0.8-1.79,1.79
		C39.04,19.22,39.84,20.02,40.83,20.02z"/>
	<path class="st1" d="M23.17,16.44h-3.14V13.3c0-0.99-0.8-1.79-1.79-1.79c-0.99,0-1.79,0.8-1.79,1.79v3.14H13.3
		c-0.99,0-1.79,0.8-1.79,1.79c0,0.99,0.8,1.79,1.79,1.79h3.14v3.14c0,0.99,0.8,1.79,1.79,1.79c0.99,0,1.79-0.8,1.79-1.79v-3.14h3.14
		c0.99,0,1.79-0.8,1.79-1.79C24.96,17.24,24.16,16.44,23.17,16.44z"/>
	<path class="st1" d="M20.77,45.77l2.22-2.22c0.7-0.7,0.7-1.83,0-2.53c-0.7-0.7-1.83-0.7-2.53,0l-2.22,2.22l-2.22-2.22
		c-0.7-0.7-1.83-0.7-2.53,0c-0.7,0.7-0.7,1.83,0,2.53l2.22,2.22l-2.22,2.22c-0.7,0.7-0.7,1.83,0,2.53c0.35,0.35,0.81,0.52,1.27,0.52
		c0.46,0,0.92-0.17,1.27-0.52l2.22-2.22l2.22,2.22c0.35,0.35,0.81,0.52,1.27,0.52c0.46,0,0.92-0.17,1.27-0.52
		c0.7-0.7,0.7-1.83,0-2.53L20.77,45.77z"/>
</g>
</svg>
