<?xml version="1.0" encoding="utf-8"?>
<!-- Generator: Adobe Illustrator 24.0.1, SVG Export Plug-In . SVG Version: 6.00 Build 0)  -->
<svg version="1.1" id="Layer_1" xmlns="http://www.w3.org/2000/svg" xmlns:xlink="http://www.w3.org/1999/xlink" x="0px" y="0px"
	 viewBox="0 0 40 40" style="enable-background:new 0 0 40 40;" xml:space="preserve">
<style type="text/css">
	.st0{opacity:0.15;fill:#7660FD;}
	.st1{fill:#7660FD;}
</style>
<path class="st0" d="M3.33,0h33.33C38.51,0,40,1.49,40,3.33v33.33c0,1.84-1.49,3.33-3.33,3.33H3.33C1.49,40,0,38.51,0,36.67V3.33
	C0,1.49,1.49,0,3.33,0z"/>
<g>
	<path class="st1" d="M24.05,13.68H10.8c-0.22,0-0.4-0.18-0.4-0.4v-2.98c0-0.22,0.18-0.4,0.4-0.4h13.25c0.22,0,0.4,0.18,0.4,0.4
		v2.98C24.46,13.5,24.28,13.68,24.05,13.68z M11.21,12.87h12.44v-2.17H11.21V12.87z"/>
	<path class="st1" d="M14.05,17.25h-3.39c-0.22,0-0.4-0.18-0.4-0.4v-1.62c0-0.22,0.18-0.4,0.4-0.4h3.39c0.22,0,0.4,0.18,0.4,0.4
		v1.62C14.46,17.07,14.28,17.25,14.05,17.25z M11.06,16.44h2.58v-0.81h-2.58V16.44z"/>
	<path class="st1" d="M19.13,17.25h-3.39c-0.22,0-0.4-0.18-0.4-0.4v-1.62c0-0.22,0.18-0.4,0.4-0.4h3.39c0.22,0,0.4,0.18,0.4,0.4
		v1.62C19.53,17.07,19.35,17.25,19.13,17.25z M16.14,16.44h2.58v-0.81h-2.58V16.44z"/>
	<path class="st1" d="M24.2,17.25H20.8c-0.22,0-0.4-0.18-0.4-0.4v-1.62c0-0.22,0.18-0.4,0.4-0.4h3.39c0.22,0,0.4,0.18,0.4,0.4v1.62
		C24.6,17.07,24.42,17.25,24.2,17.25z M21.21,16.44h2.58v-0.81h-2.58V16.44z"/>
	<path class="st1" d="M12.91,21.82h-2.25c-0.22,0-0.4-0.18-0.4-0.4v-2.28c0-0.22,0.18-0.4,0.4-0.4h2.25c0.22,0,0.4,0.18,0.4,0.4
		v2.28C13.31,21.64,13.13,21.82,12.91,21.82z M11.06,21.01h1.44v-1.47h-1.44V21.01z"/>
	<path class="st1" d="M16.67,21.82h-2.25c-0.22,0-0.4-0.18-0.4-0.4v-2.28c0-0.22,0.18-0.4,0.4-0.4h2.25c0.22,0,0.4,0.18,0.4,0.4
		v2.28C17.07,21.64,16.89,21.82,16.67,21.82z M14.83,21.01h1.44v-1.47h-1.44V21.01z"/>
	<path class="st1" d="M20.43,21.82h-2.25c-0.22,0-0.4-0.18-0.4-0.4v-2.28c0-0.22,0.18-0.4,0.4-0.4h2.25c0.22,0,0.4,0.18,0.4,0.4
		v2.28C20.84,21.64,20.66,21.82,20.43,21.82z M18.59,21.01h1.44v-1.47h-1.44V21.01z"/>
	<path class="st1" d="M12.91,25.46h-2.25c-0.22,0-0.4-0.18-0.4-0.4v-2.28c0-0.22,0.18-0.4,0.4-0.4h2.25c0.22,0,0.4,0.18,0.4,0.4
		v2.28C13.31,25.28,13.13,25.46,12.91,25.46z M11.06,24.65h1.44v-1.47h-1.44V24.65z"/>
	<path class="st1" d="M16.67,25.46h-2.25c-0.22,0-0.4-0.18-0.4-0.4v-2.28c0-0.22,0.18-0.4,0.4-0.4h2.25c0.22,0,0.4,0.18,0.4,0.4
		v2.28C17.07,25.28,16.89,25.46,16.67,25.46z M14.83,24.65h1.44v-1.47h-1.44V24.65z"/>
	<path class="st1" d="M12.91,29.1h-2.25c-0.22,0-0.4-0.18-0.4-0.4v-2.28c0-0.22,0.18-0.4,0.4-0.4h2.25c0.22,0,0.4,0.18,0.4,0.4v2.28
		C13.31,28.92,13.13,29.1,12.91,29.1z M11.06,28.29h1.44v-1.47h-1.44V28.29z"/>
	<path class="st1" d="M16.67,29.1h-2.25c-0.22,0-0.4-0.18-0.4-0.4v-2.28c0-0.22,0.18-0.4,0.4-0.4h2.25c0.22,0,0.4,0.18,0.4,0.4v2.28
		C17.07,28.92,16.89,29.1,16.67,29.1z M14.83,28.29h1.44v-1.47h-1.44V28.29z"/>
	<path class="st1" d="M21.92,31.38H9.79c-0.77,0-1.39-0.62-1.39-1.39V9c0-0.77,0.62-1.39,1.39-1.39h15.27
		c0.77,0,1.39,0.62,1.39,1.39v11.11c0,0.12-0.05,0.23-0.14,0.3c-0.09,0.08-0.2,0.11-0.32,0.1c-0.29-0.04-0.53-0.06-0.75-0.06
		c-3.07,0-5.56,2.5-5.56,5.56c0,1.86,0.92,3.58,2.47,4.62c0.15,0.1,0.21,0.28,0.16,0.45C22.25,31.26,22.1,31.38,21.92,31.38z
		 M9.79,8.42C9.47,8.42,9.21,8.68,9.21,9v20.99c0,0.32,0.26,0.58,0.58,0.58h10.99c-1.21-1.19-1.91-2.82-1.91-4.55
		c0-3.51,2.86-6.37,6.37-6.37c0.13,0,0.26,0.01,0.4,0.02V9c0-0.32-0.26-0.58-0.58-0.58H9.79z"/>
	<path class="st1" d="M21.95,21.45c-0.07,0-0.13-0.02-0.19-0.05c-0.13-0.07-0.21-0.21-0.21-0.36v-1.9c0-0.22,0.18-0.4,0.4-0.4h2.25
		c0.22,0,0.4,0.18,0.4,0.4v1.01c0,0.2-0.14,0.36-0.33,0.4c-0.76,0.13-1.46,0.41-2.09,0.83C22.11,21.42,22.03,21.45,21.95,21.45z
		 M22.36,19.54v0.79c0.45-0.23,0.93-0.41,1.44-0.52v-0.27H22.36z"/>
	<path class="st1" d="M19.36,25.46h-1.17c-0.22,0-0.4-0.18-0.4-0.4v-2.28c0-0.22,0.18-0.4,0.4-0.4h2.05c0.15,0,0.28,0.08,0.36,0.21
		c0.07,0.13,0.06,0.29-0.02,0.41c-0.42,0.64-0.69,1.36-0.81,2.12C19.73,25.32,19.56,25.46,19.36,25.46z M18.59,24.65h0.43
		c0.11-0.51,0.28-1,0.51-1.47h-0.95V24.65z"/>
	<path class="st1" d="M19.92,29.1h-1.73c-0.22,0-0.4-0.18-0.4-0.4v-2.28c0-0.22,0.18-0.4,0.4-0.4h1.11c0.21,0,0.39,0.16,0.4,0.38
		c0.05,0.75,0.24,1.46,0.58,2.12c0.06,0.13,0.06,0.27-0.02,0.39C20.19,29.03,20.06,29.1,19.92,29.1z M18.59,28.29h0.7
		c-0.18-0.47-0.3-0.96-0.37-1.47h-0.34V28.29z"/>
	<path class="st1" d="M25.24,32.39c-3.51,0-6.37-2.86-6.37-6.37c0-3.51,2.86-6.37,6.37-6.37c0.66,0,1.31,0.1,1.93,0.3
		c0.21,0.07,0.33,0.29,0.26,0.51c-0.07,0.21-0.3,0.33-0.51,0.26c-0.54-0.17-1.11-0.26-1.68-0.26c-3.07,0-5.56,2.5-5.56,5.56
		s2.5,5.56,5.56,5.56c2.39,0,4.51-1.52,5.27-3.78c0.07-0.21,0.3-0.33,0.51-0.25c0.21,0.07,0.33,0.3,0.25,0.51
		C30.41,30.65,27.98,32.39,25.24,32.39z"/>
	<path class="st1" d="M27.8,21.03c-0.06,0-0.12-0.01-0.17-0.04c-0.23-0.11-0.46-0.2-0.7-0.28c-0.21-0.07-0.33-0.29-0.26-0.51
		c0.07-0.21,0.3-0.33,0.51-0.26c0.27,0.09,0.55,0.19,0.8,0.32c0.2,0.1,0.29,0.34,0.19,0.54C28.1,20.94,27.95,21.03,27.8,21.03z"/>
	<path class="st1" d="M31.19,25.98c-0.21,0-0.39-0.16-0.4-0.38c-0.04-0.49-0.14-0.97-0.3-1.43c-0.07-0.21,0.04-0.44,0.25-0.52
		c0.21-0.07,0.44,0.04,0.52,0.25c0.18,0.53,0.3,1.08,0.34,1.64c0.02,0.22-0.15,0.42-0.37,0.43C31.21,25.98,31.2,25.98,31.19,25.98z
		 M30.17,23.05c-0.13,0-0.26-0.06-0.33-0.18c-0.28-0.4-0.61-0.77-0.98-1.09c-0.17-0.15-0.19-0.4-0.04-0.57
		c0.15-0.17,0.4-0.19,0.57-0.04c0.43,0.36,0.8,0.78,1.12,1.24c0.13,0.18,0.08,0.44-0.1,0.56C30.33,23.03,30.25,23.05,30.17,23.05z"
		/>
	<path class="st1" d="M30.9,28.34c-0.04,0-0.09-0.01-0.13-0.02c-0.21-0.07-0.33-0.3-0.25-0.51c0.08-0.24,0.14-0.48,0.19-0.73
		c0.04-0.22,0.25-0.36,0.47-0.32c0.22,0.04,0.36,0.25,0.32,0.47c-0.05,0.28-0.13,0.56-0.22,0.84C31.22,28.23,31.07,28.34,30.9,28.34
		z"/>
	<path class="st1" d="M25.24,29.82c-1.23,0-2.23-0.94-2.23-2.1c0-0.22,0.18-0.4,0.4-0.4c0.22,0,0.4,0.18,0.4,0.4
		c0,0.71,0.64,1.29,1.42,1.29c0.78,0,1.42-0.58,1.42-1.29c0-0.71-0.64-1.29-1.42-1.29c-1.23,0-2.23-0.94-2.23-2.1s1-2.1,2.23-2.1
		c1.23,0,2.23,0.94,2.23,2.1c0,0.22-0.18,0.4-0.4,0.4c-0.22,0-0.4-0.18-0.4-0.4c0-0.71-0.64-1.29-1.42-1.29
		c-0.78,0-1.42,0.58-1.42,1.29c0,0.71,0.64,1.29,1.42,1.29c1.23,0,2.23,0.94,2.23,2.1S26.47,29.82,25.24,29.82z"/>
	<path class="st1" d="M25.24,30.51c-0.22,0-0.4-0.18-0.4-0.4v-8.17c0-0.22,0.18-0.4,0.4-0.4c0.22,0,0.4,0.18,0.4,0.4v8.17
		C25.65,30.33,25.47,30.51,25.24,30.51z"/>
</g>
</svg>
