<?xml version="1.0" encoding="utf-8"?>
<!-- Generator: Adobe Illustrator 24.0.1, SVG Export Plug-In . SVG Version: 6.00 Build 0)  -->
<svg version="1.1" id="Layer_1" xmlns="http://www.w3.org/2000/svg" xmlns:xlink="http://www.w3.org/1999/xlink" x="0px" y="0px"
	 viewBox="0 0 40 40" style="enable-background:new 0 0 40 40;" xml:space="preserve">
<style type="text/css">
	.st0{opacity:0.15;fill:#4B8FFF;}
	.st1{fill:#4B8FFF;}
</style>
<path class="st0" d="M3.33,0h33.33C38.51,0,40,1.49,40,3.33v33.33c0,1.84-1.49,3.33-3.33,3.33H3.33C1.49,40,0,38.51,0,36.67V3.33
	C0,1.49,1.49,0,3.33,0z"/>
<g>
	<path class="st1" d="M20.19,24.24H19.9c-1.39,0-2.51-1.13-2.51-2.51c0-0.36,0.3-0.66,0.66-0.66c0.36,0,0.66,0.3,0.66,0.66
		c0,0.66,0.54,1.2,1.19,1.2h0.29c0.66,0,1.2-0.54,1.2-1.2c0-0.59-0.48-1.06-1.06-1.06h-0.55c-1.31,0-2.38-1.07-2.38-2.38
		c0-1.39,1.13-2.51,2.51-2.51h0.29c1.39,0,2.51,1.13,2.51,2.51c0,0.36-0.3,0.66-0.66,0.66c-0.36,0-0.66-0.3-0.66-0.66
		c0-0.66-0.54-1.19-1.2-1.19H19.9c-0.66,0-1.19,0.54-1.19,1.19c0,0.59,0.48,1.06,1.06,1.06h0.55c1.31,0,2.38,1.07,2.38,2.38
		C22.7,23.11,21.57,24.24,20.19,24.24z"/>
	<path class="st1" d="M20.04,17.08c-0.36,0-0.66-0.3-0.66-0.66v-1.37c0-0.36,0.3-0.66,0.66-0.66c0.36,0,0.66,0.3,0.66,0.66v1.37
		C20.7,16.79,20.41,17.08,20.04,17.08z"/>
	<path class="st1" d="M20.04,28.39c-4.63,0-8.39-3.76-8.39-8.39c0-4.63,3.76-8.39,8.39-8.39s8.39,3.76,8.39,8.39
		C28.44,24.63,24.67,28.39,20.04,28.39z M20.04,12.93c-3.9,0-7.07,3.17-7.07,7.07s3.17,7.07,7.07,7.07c3.9,0,7.07-3.17,7.07-7.07
		S23.94,12.93,20.04,12.93z"/>
	<path class="st1" d="M20.04,25.6c-0.36,0-0.66-0.3-0.66-0.66v-1.36c0-0.36,0.3-0.66,0.66-0.66c0.36,0,0.66,0.3,0.66,0.66v1.36
		C20.7,25.31,20.41,25.6,20.04,25.6z"/>
	<path class="st1" d="M20.04,12.93H9.65c-0.36,0-0.66-0.3-0.66-0.66s0.3-0.66,0.66-0.66h10.4c0.36,0,0.66,0.3,0.66,0.66
		S20.41,12.93,20.04,12.93z"/>
	<path class="st1" d="M11.44,14.31c-0.14,0-0.28-0.04-0.4-0.14l-1.79-1.39c-0.16-0.13-0.26-0.32-0.26-0.52c0-0.2,0.09-0.4,0.26-0.52
		l1.79-1.39c0.29-0.22,0.7-0.17,0.93,0.12c0.22,0.29,0.17,0.7-0.12,0.93l-1.12,0.86l1.12,0.86c0.29,0.22,0.34,0.64,0.12,0.93
		C11.83,14.23,11.64,14.31,11.44,14.31z"/>
	<path class="st1" d="M25.56,9.85h-8.53c-0.36,0-0.66-0.3-0.66-0.66s0.3-0.66,0.66-0.66h8.53c0.36,0,0.66,0.3,0.66,0.66
		S25.92,9.85,25.56,9.85z"/>
	<path class="st1" d="M30.35,28.39h-10.4c-0.36,0-0.66-0.3-0.66-0.66c0-0.36,0.3-0.66,0.66-0.66h10.4c0.36,0,0.66,0.3,0.66,0.66
		C31.01,28.1,30.72,28.39,30.35,28.39z"/>
	<path class="st1" d="M28.56,29.78c-0.2,0-0.39-0.09-0.52-0.26c-0.22-0.29-0.17-0.7,0.12-0.93l1.12-0.86l-1.12-0.86
		c-0.29-0.22-0.34-0.64-0.12-0.93c0.22-0.29,0.64-0.34,0.93-0.12l1.79,1.39c0.16,0.13,0.26,0.32,0.26,0.52s-0.09,0.4-0.26,0.52
		l-1.79,1.39C28.84,29.73,28.7,29.78,28.56,29.78z"/>
	<path class="st1" d="M22.98,31.47h-8.53c-0.36,0-0.66-0.3-0.66-0.66c0-0.36,0.3-0.66,0.66-0.66h8.53c0.36,0,0.66,0.3,0.66,0.66
		C23.64,31.18,23.34,31.47,22.98,31.47z"/>
</g>
</svg>
