<?xml version="1.0" encoding="utf-8"?>
<!-- Generator: Adobe Illustrator 24.0.1, SVG Export Plug-In . SVG Version: 6.00 Build 0)  -->
<svg version="1.1" id="Layer_1" xmlns="http://www.w3.org/2000/svg" xmlns:xlink="http://www.w3.org/1999/xlink" x="0px" y="0px"
	 viewBox="0 0 40 40" style="enable-background:new 0 0 40 40;" xml:space="preserve">
<style type="text/css">
	.st0{opacity:0.15;fill:#56CFBC;}
	.st1{fill:#56CFBC;}
</style>
<path class="st0" d="M3.33,0h33.33C38.51,0,40,1.49,40,3.33v33.33c0,1.84-1.49,3.33-3.33,3.33H3.33C1.49,40,0,38.51,0,36.67V3.33
	C0,1.49,1.49,0,3.33,0z"/>
<g>
	<g>
		<path class="st1" d="M30.82,20.97v8.82c0,0.27-0.16,0.38-0.43,0.38H9.85c-0.27,0-0.53-0.12-0.53-0.38V24.5
			c0-0.27,0.21-0.48,0.48-0.48c0.27,0,0.48,0.21,0.48,0.48v4.71h3.85V18.09c0-0.27,0.22-0.48,0.48-0.48c0.27,0,0.48,0.21,0.48,0.48
			v11.13h4.49v-6.64c0-0.27,0.22-0.48,0.48-0.48c0.27,0,0.48,0.22,0.48,0.48v6.64h4.17V16.48c0-0.27,0.22-0.48,0.48-0.48
			c0.27,0,0.48,0.22,0.48,0.48v12.74h4.17v-8.24c0-0.27,0.21-0.48,0.48-0.48C30.6,20.49,30.82,20.71,30.82,20.97z"/>
	</g>
	<path class="st1" d="M30.2,14.99c-0.33,0-0.65,0.08-0.93,0.22l-2.25-2.51c-0.01-0.01-0.01-0.01-0.02-0.01
		c0.09-0.23,0.14-0.48,0.14-0.75c0-1.16-0.95-2.11-2.11-2.11c-1.17,0-2.11,0.95-2.11,2.11c0,0.41,0.12,0.8,0.33,1.13l-2.43,3.4
		c-0.34-0.25-0.77-0.39-1.22-0.39c-0.55,0-1.05,0.21-1.42,0.56l-1.95-1.95c0.21-0.32,0.32-0.7,0.32-1.11c0-1.16-0.95-2.11-2.11-2.11
		c-1.16,0-2.11,0.95-2.11,2.11c0,0.5,0.18,0.97,0.47,1.33l-2.48,3.96c-0.16-0.04-0.33-0.06-0.51-0.06c-1.16,0-2.11,0.95-2.11,2.11
		c0,1.16,0.95,2.11,2.11,2.11s2.11-0.95,2.11-2.11c0-0.64-0.29-1.22-0.74-1.6l2.38-3.81c0.26,0.12,0.56,0.19,0.87,0.19
		c0.41,0,0.79-0.12,1.11-0.32l2.08,2.08c-0.09,0.23-0.14,0.48-0.14,0.75c0,1.16,0.95,2.11,2.11,2.11c1.16,0,2.11-0.95,2.11-2.11
		c0-0.35-0.09-0.68-0.24-0.98l2.48-3.47c0.32,0.2,0.69,0.3,1.09,0.3c0.55,0,1.04-0.21,1.41-0.55l2.08,2.31
		c-0.28,0.36-0.44,0.8-0.44,1.29c0,1.16,0.95,2.11,2.11,2.11c1.16,0,2.11-0.95,2.11-2.11C32.31,15.94,31.36,14.99,30.2,14.99z
		 M9.8,22.06c-0.64,0-1.15-0.52-1.15-1.15c0-0.63,0.52-1.15,1.15-1.15c0.63,0,1.15,0.52,1.15,1.15
		C10.95,21.54,10.44,22.06,9.8,22.06z M14.42,14.72c-0.63,0-1.15-0.52-1.15-1.15c0-0.64,0.52-1.15,1.15-1.15
		c0.64,0,1.15,0.51,1.15,1.15C15.58,14.2,15.06,14.72,14.42,14.72z M19.59,19.34c-0.64,0-1.15-0.52-1.15-1.15
		c0-0.66,0.54-1.15,1.15-1.15c0.63,0,1.15,0.52,1.15,1.15C20.74,18.82,20.23,19.34,19.59,19.34z M25.03,13.08
		c-0.64,0-1.15-0.52-1.15-1.15c0-0.64,0.52-1.15,1.15-1.15c0.63,0,1.15,0.52,1.15,1.15C26.18,12.57,25.67,13.08,25.03,13.08z
		 M30.2,18.25c-0.64,0-1.15-0.52-1.15-1.15c0-0.64,0.52-1.15,1.15-1.15c0.63,0,1.15,0.52,1.15,1.15
		C31.35,17.73,30.83,18.25,30.2,18.25z"/>
</g>
</svg>
