<?xml version="1.0" encoding="utf-8"?>
<!-- Generator: Adobe Illustrator 24.0.1, SVG Export Plug-In . SVG Version: 6.00 Build 0)  -->
<svg version="1.1" id="Layer_1" xmlns="http://www.w3.org/2000/svg" xmlns:xlink="http://www.w3.org/1999/xlink" x="0px" y="0px"
	 viewBox="0 0 1000 1000" style="enable-background:new 0 0 1000 1000;" xml:space="preserve">
<style type="text/css">
	.st0{fill:#73C9BB;}
	.st1{fill:#1E2235;}
</style>
<g>
	<g>
		<g>
			<path class="st0" d="M824.85,304.55c-48.29,0-87.58,39.29-87.58,87.58c0,17.61,5.24,34.02,14.23,47.76l-94.62,94.62
				c-13.75-8.98-30.15-14.23-47.77-14.23c-18.25,0-35.21,5.62-49.26,15.21l-95.6-95.61c8.98-13.75,14.22-30.15,14.22-47.76
				c0-48.29-39.29-87.58-87.58-87.58s-87.58,39.29-87.58,87.58c0,17.61,5.24,34.01,14.22,47.75l-94.63,94.63
				c-13.75-8.98-30.14-14.22-47.75-14.22c-48.29,0-87.58,39.29-87.58,87.58s39.29,87.58,87.58,87.58s87.58-39.29,87.58-87.58
				c0-17.61-5.24-34.02-14.23-47.77l94.62-94.62c13.75,8.98,30.15,14.23,47.77,14.23c17.61,0,34.01-5.24,47.76-14.23l96.13,96.14
				c-8.39,13.43-13.25,29.28-13.25,46.25c0,48.29,39.29,87.58,87.58,87.58s87.58-39.29,87.58-87.58c0-17.61-5.24-34.01-14.22-47.75
				l94.63-94.63c13.75,8.98,30.15,14.22,47.75,14.22c48.29,0,87.58-39.29,87.58-87.58C912.44,343.83,873.15,304.55,824.85,304.55z
				 M175.15,659.25c-28.33,0-51.38-23.05-51.38-51.38c0-28.33,23.05-51.38,51.38-51.38c28.33,0,51.38,23.05,51.38,51.38
				C226.53,636.2,203.48,659.25,175.15,659.25z M390.89,443.51c-28.33,0-51.38-23.05-51.38-51.38c0-28.33,23.05-51.38,51.38-51.38
				s51.38,23.05,51.38,51.38S419.22,443.51,390.89,443.51z M609.11,659.25c-28.33,0-51.38-23.05-51.38-51.38
				c0-28.33,23.05-51.38,51.38-51.38c28.33,0,51.38,23.05,51.38,51.38C660.49,636.2,637.44,659.25,609.11,659.25z M824.85,443.51
				c-28.33,0-51.38-23.05-51.38-51.38c0-28.33,23.05-51.38,51.38-51.38c28.33,0,51.38,23.05,51.38,51.38
				S853.18,443.51,824.85,443.51z"/>
		</g>
	</g>
	<g>
		<g>
			<path class="st1" d="M372.36,526.93c-7.07-7.07-18.53-7.07-25.6,0l-36.82,36.82c-7.07,7.07-7.07,18.53,0,25.6
				c3.53,3.53,8.17,5.3,12.8,5.3c4.63,0,9.27-1.77,12.8-5.3l36.82-36.82C379.43,545.46,379.43,534,372.36,526.93z"/>
		</g>
	</g>
	<g>
		<g>
			<path class="st1" d="M690.05,411.29c-7.07-7.07-18.53-7.07-25.6,0l-36.82,36.82c-7.07,7.07-7.07,18.53,0,25.6
				c3.54,3.53,8.17,5.3,12.8,5.3c4.63,0,9.26-1.77,12.8-5.3l36.82-36.82C697.11,429.82,697.11,418.36,690.05,411.29z"/>
		</g>
	</g>
</g>
</svg>
