<?xml version="1.0" encoding="utf-8"?>
<!-- Generator: Adobe Illustrator 24.0.1, SVG Export Plug-In . SVG Version: 6.00 Build 0)  -->
<svg version="1.1" id="Layer_1" xmlns="http://www.w3.org/2000/svg" xmlns:xlink="http://www.w3.org/1999/xlink" x="0px" y="0px"
	 viewBox="0 0 1000 1000" style="enable-background:new 0 0 1000 1000;" xml:space="preserve">
<style type="text/css">
	.st0{fill:#1E2235;}
	.st1{fill:#73C9BB;}
</style>
<g>
	<g>
		<path class="st0" d="M796.57,694.86L689.82,588.25c-3.7-3.7-9.67-3.7-13.48,0l-11.53,11.67l-27.28-27.31
			c66.67-97.5,54.59-231.71-29.58-315.84c-96.8-96.94-254.44-96.94-351.27,0c-96.94,96.94-96.94,254.44,0,351.39
			c47.77,47.77,111.88,72.2,176.13,72.2c48.76,0,97.67-14.21,139.74-42.62l27.31,26.99l-11.67,11.67c-3.7,3.7-3.7,9.67,0,13.62
			l106.75,106.64C707.9,809.45,724.93,816,741.99,816s34.12-6.55,47.07-19.33l7.51-7.69C822.6,763.1,822.6,721.04,796.57,694.86z
			 M580.39,618.39c-3.29-3.41-8.68-3.96-12.52-1.14c-90.28,66.55-218.2,56.59-297.67-22.74c-89.4-89.55-89.4-234.82,0-324.11
			c44.66-44.92,103.49-67.37,162.21-67.37c58.69,0,117.41,22.45,162.04,67.37c79.48,79.04,89.26,207.25,22.88,297.67
			c-2.82,3.7-2.42,9.08,0.84,12.23l32.98,32.98l-37.82,38.08L580.39,618.39z M620.18,671.57l51.33-51.47l11.64-11.64l30.42,30.68
			l-74.64,74.5l-30.42-30.42L620.18,671.57z M783.1,775.62l-7.54,7.39c-18.49,18.49-48.62,18.49-67.1,0l-55.87-55.72l74.5-74.79
			l56.01,56.01C801.55,727,801.55,757.13,783.1,775.62z"/>
	</g>
	<g>
		<path class="st0" d="M432.41,251.07c-48.47,0-94.12,18.78-128.39,52.9c-34.09,34.38-53.01,79.88-53.01,128.5
			c0,48.33,18.92,93.8,53.01,128.21c34.27,34.12,79.91,53.16,128.39,53.16c48.33,0,93.95-19.04,128.21-53.16
			c34.27-34.41,53.16-79.88,53.16-128.21c0-48.62-18.89-94.12-53.16-128.5C526.35,269.85,480.73,251.07,432.41,251.07z
			 M547.11,547.03c-30.71,30.71-71.35,47.48-114.7,47.48c-43.38,0-84.16-16.77-114.73-47.48c-30.68-30.68-47.63-71.35-47.63-114.56
			c0-43.49,16.94-84.16,47.63-114.88c30.57-30.68,71.35-47.45,114.73-47.45c43.35,0,83.99,16.77,114.7,47.45
			c30.57,30.71,47.48,71.38,47.48,114.88C594.59,475.68,577.68,516.35,547.11,547.03z"/>
	</g>
	<g>
		<path class="st1" d="M432.41,373.32c16.33,0,29.69,11.67,29.69,25.88c0,5.41,4.28,9.67,9.52,9.67c5.27,0,9.52-4.25,9.52-9.67
			c0-21.89-16.91-40.09-39.21-44.08v-11.06c0-5.41-4.28-9.67-9.52-9.67c-5.41,0-9.67,4.25-9.67,9.67v11.06
			c-22.33,3.99-39.24,22.18-39.24,44.08s12.78,45.5,48.91,45.5c19.33,0,29.69,8.79,29.69,25.85c0,14.5-13.36,26.17-29.69,26.17
			c-16.51,0-29.72-11.67-29.72-26.17c0-5.09-4.25-9.37-9.67-9.37c-5.27,0-9.52,4.28-9.52,9.37c0,22.18,16.91,40.38,39.24,44.37
			v11.09c0,5.39,4.25,9.67,9.67,9.67c5.24,0,9.52-4.28,9.52-9.67v-11.09c22.3-3.99,39.21-22.18,39.21-44.37
			c0-21.6-12.78-45.18-48.73-45.18c-19.48,0-29.72-8.82-29.72-26.17C402.68,384.99,415.9,373.32,432.41,373.32z"/>
	</g>
	<g>
		<path class="st1" d="M602.28,203.04h79.59c5.27,0,9.52-4.28,9.52-9.67c0-5.12-4.25-9.37-9.52-9.37h-79.59
			c-5.41,0-9.67,4.25-9.67,9.37C592.61,198.76,596.86,203.04,602.28,203.04z"/>
	</g>
	<g>
		<path class="st1" d="M736.31,203.04h70.07c5.41,0,9.67-4.28,9.67-9.67c0-5.12-4.25-9.37-9.67-9.37h-70.07
			c-5.27,0-9.52,4.25-9.52,9.37C726.79,198.76,731.04,203.04,736.31,203.04z"/>
	</g>
	<g>
		<path class="st1" d="M806.39,251.07H669.21c-5.24,0-9.52,4.28-9.52,9.4c0,5.39,4.28,9.67,9.52,9.67h137.18
			c5.41,0,9.67-4.28,9.67-9.67C816.05,255.35,811.8,251.07,806.39,251.07z"/>
	</g>
	<g>
		<path class="st1" d="M806.39,318.18h-98.78c-5.27,0-9.52,4.25-9.52,9.37c0,5.41,4.25,9.67,9.52,9.67h98.78
			c5.41,0,9.67-4.25,9.67-9.67C816.05,322.43,811.8,318.18,806.39,318.18z"/>
	</g>
	<g>
		<path class="st1" d="M806.39,384.99h-79.59c-5.41,0-9.67,4.25-9.67,9.67c0,5.39,4.25,9.67,9.67,9.67h79.59
			c5.41,0,9.67-4.28,9.67-9.67C816.05,389.24,811.8,384.99,806.39,384.99z"/>
	</g>
	<g>
		<path class="st1" d="M806.39,452.36h-79.59c-5.41,0-9.67,3.99-9.67,9.4c0,5.39,4.25,9.67,9.67,9.67h79.59
			c5.41,0,9.67-4.28,9.67-9.67C816.05,456.35,811.8,452.36,806.39,452.36z"/>
	</g>
	<g>
		<path class="st1" d="M193.45,203.04h74.18c5.41,0,9.67-4.28,9.67-9.67c0-5.12-4.25-9.37-9.67-9.37h-74.18
			c-5.27,0-9.55,4.25-9.55,9.37C183.91,198.76,188.18,203.04,193.45,203.04z"/>
	</g>
	<g>
		<path class="st1" d="M193.45,270.14h16.77c5.24,0,9.67-4.28,9.67-9.67c0-5.12-4.43-9.4-9.67-9.4h-16.77
			c-5.27,0-9.55,4.28-9.55,9.4C183.91,265.86,188.18,270.14,193.45,270.14z"/>
	</g>
</g>
</svg>
