<?xml version="1.0" encoding="utf-8"?>
<!-- Generator: Adobe Illustrator 24.0.1, SVG Export Plug-In . SVG Version: 6.00 Build 0)  -->
<svg version="1.1" id="Layer_1" xmlns="http://www.w3.org/2000/svg" xmlns:xlink="http://www.w3.org/1999/xlink" x="0px" y="0px"
	 viewBox="0 0 1000 1000" style="enable-background:new 0 0 1000 1000;" xml:space="preserve">
<style type="text/css">
	.st0{fill:#252D3A;}
	.st1{fill:#73C9BB;}
</style>
<g>
	<g>
		<g>
			<g>
				<g>
					<path class="st0" d="M792.32,779.61H207.68c-7.02,0-12.71,5.69-12.71,12.71c0,7.02,5.69,12.71,12.71,12.71h584.65
						c7.02,0,12.71-5.69,12.71-12.71C805.03,785.31,799.34,779.61,792.32,779.61z"/>
				</g>
			</g>
			<g>
				<g>
					<path class="st0" d="M309.35,627.1h-76.26c-7.02,0-12.71,5.69-12.71,12.71v152.52c0,7.01,5.69,12.71,12.71,12.71h76.26
						c7.02,0,12.71-5.69,12.71-12.71V639.81C322.06,632.79,316.37,627.1,309.35,627.1z M296.64,779.61H245.8v-127.1h50.84
						L296.64,779.61L296.64,779.61z"/>
				</g>
			</g>
			<g>
				<g>
					<path class="st0" d="M461.87,500h-76.26c-7.02,0-12.71,5.69-12.71,12.71v279.61c0,7.02,5.69,12.71,12.71,12.71h76.26
						c7.02,0,12.71-5.69,12.71-12.71V512.71C474.58,505.69,468.89,500,461.87,500z M449.16,779.61h-50.84v-254.2h50.84
						L449.16,779.61L449.16,779.61z"/>
				</g>
			</g>
			<g>
				<g>
					<path class="st0" d="M614.39,550.84h-76.26c-7.02,0-12.71,5.69-12.71,12.71v228.78c0,7.02,5.69,12.71,12.71,12.71h76.26
						c7.02,0,12.71-5.69,12.71-12.71V563.55C627.1,556.53,621.4,550.84,614.39,550.84z M601.68,779.61h-50.84V576.26h50.84V779.61z"
						/>
				</g>
			</g>
			<g>
				<g>
					<path class="st0" d="M766.9,398.32h-76.26c-7.02,0-12.71,5.69-12.71,12.71v381.29c0,7.02,5.69,12.71,12.71,12.71h76.26
						c7.02,0,12.71-5.69,12.71-12.71V411.03C779.61,404.02,773.92,398.32,766.9,398.32z M754.19,779.61h-50.84V423.74h50.84V779.61z
						"/>
				</g>
			</g>
		</g>
	</g>
	<g>
		<g>
			<path class="st1" d="M271.22,423.74c-28.04,0-50.84,22.8-50.84,50.84s22.8,50.84,50.84,50.84s50.84-22.8,50.84-50.84
				S299.26,423.74,271.22,423.74z M271.22,500c-14.03,0-25.42-11.41-25.42-25.42c0-14.01,11.39-25.42,25.42-25.42
				s25.42,11.41,25.42,25.42C296.64,488.59,285.26,500,271.22,500z"/>
		</g>
	</g>
	<g>
		<g>
			<path class="st1" d="M423.74,296.64c-28.04,0-50.84,22.8-50.84,50.84s22.8,50.84,50.84,50.84c28.04,0,50.84-22.8,50.84-50.84
				S451.78,296.64,423.74,296.64z M423.74,372.9c-14.03,0-25.42-11.41-25.42-25.42c0-14.01,11.39-25.42,25.42-25.42
				c14.03,0,25.42,11.41,25.42,25.42C449.16,361.49,437.77,372.9,423.74,372.9z"/>
		</g>
	</g>
	<g>
		<g>
			<path class="st1" d="M576.26,347.48c-28.04,0-50.84,22.8-50.84,50.84c0,28.04,22.8,50.84,50.84,50.84s50.84-22.8,50.84-50.84
				S604.3,347.48,576.26,347.48z M576.26,423.74c-14.03,0-25.42-11.41-25.42-25.42c0-14.01,11.39-25.42,25.42-25.42
				s25.42,11.41,25.42,25.42C601.68,412.33,590.29,423.74,576.26,423.74z"/>
		</g>
	</g>
	<g>
		<g>
			<path class="st1" d="M728.77,194.97c-28.04,0-50.84,22.8-50.84,50.84s22.8,50.84,50.84,50.84c28.04,0,50.84-22.8,50.84-50.84
				S756.81,194.97,728.77,194.97z M728.77,271.22c-14.03,0-25.42-11.41-25.42-25.42c0-14.01,11.39-25.42,25.42-25.42
				s25.42,11.41,25.42,25.42C754.19,259.81,742.81,271.22,728.77,271.22z"/>
		</g>
	</g>
	<g>
		<g>
			<path class="st1" d="M710.83,263.75c-4.96-4.96-13.02-4.96-17.97,0l-98.63,98.63c-4.96,4.96-4.96,13.02,0,17.97
				c2.49,2.47,5.74,3.71,9,3.71c3.23,0,6.48-1.22,8.97-3.71l98.63-98.63C715.79,276.77,715.79,268.71,710.83,263.75z"/>
		</g>
	</g>
	<g>
		<g>
			<path class="st1" d="M545.53,368.99l-81.65-23.28c-6.84-1.98-13.78,1.98-15.68,8.74c-1.93,6.76,1.98,13.78,8.72,15.71
				l81.65,23.28c1.17,0.33,2.34,0.48,3.48,0.48c5.54,0,10.62-3.64,12.23-9.23C556.2,377.96,552.29,370.92,545.53,368.99z"/>
		</g>
	</g>
	<g>
		<g>
			<path class="st1" d="M403.91,363.32c-4.37-5.49-12.35-6.38-17.84-2.03l-95.83,76.41c-5.49,4.4-6.41,12.38-2.01,17.87
				c2.52,3.15,6.23,4.78,9.94,4.78c2.77,0,5.57-0.92,7.91-2.75l95.83-76.41C407.4,376.79,408.31,368.81,403.91,363.32z"/>
		</g>
	</g>
</g>
</svg>
