<?xml version="1.0" encoding="utf-8"?>
<!-- Generator: Adobe Illustrator 24.0.1, SVG Export Plug-In . SVG Version: 6.00 Build 0)  -->
<svg version="1.1" id="Layer_1" xmlns="http://www.w3.org/2000/svg" xmlns:xlink="http://www.w3.org/1999/xlink" x="0px" y="0px"
	 viewBox="0 0 1000 1000" style="enable-background:new 0 0 1000 1000;" xml:space="preserve">
<style type="text/css">
	.st0{fill:#73C9BB;}
	.st1{fill:#1E2235;}
</style>
<g>
	<path class="st0" d="M826.57,290.22c-17.88,0-32.43,14.55-32.43,32.43c0,1.57,0.15,3.09,0.36,4.6l-78.95,50.1l-26.36,16.73
		l-0.19,0.12c-0.81,0.68-1.62,1.36-2.37,2.11c0.75-0.75,1.56-1.42,2.37-2.11l-33.04,20.96c-5.12-3.39-11.24-5.37-17.83-5.37
		c-17.88,0-32.43,14.55-32.43,32.43c0,3.12,0.46,6.11,1.29,8.97l-105.87,89.77c-4.46-2.32-9.52-3.65-14.89-3.65
		c-7.49,0-14.37,2.58-19.86,6.85l-111.83-56.03c-6.56-3.28-14.55-0.63-17.84,5.93c-3.29,6.57-0.63,14.55,5.93,17.84l111.28,55.75
		c-0.04,0.69-0.11,1.38-0.11,2.08c0,17.88,14.55,32.43,32.43,32.43s32.43-14.55,32.43-32.43c0-2.74-0.38-5.38-1.02-7.92
		l106.57-90.34c4.23,2.02,8.94,3.19,13.93,3.19c17.88,0,32.43-14.54,32.43-32.43c0-1.57-0.15-3.09-0.36-4.6l138.52-87.91
		c5.12,3.39,11.24,5.37,17.83,5.37c17.88,0,32.43-14.54,32.43-32.43S844.45,290.22,826.57,290.22z"/>
	<path class="st1" d="M689.18,394.02c8.13-6.8,18.87-10.91,26.38-18.33V191.48c0-40.19-32.72-72.92-72.96-72.92H347.52
		c-40.24,0-72.96,32.72-72.96,72.92v8.29c-0.29,1.08-0.45,2.16-0.45,3.32s0.17,2.24,0.45,3.32v533.99
		c-0.29,1.08-0.45,2.16-0.45,3.32c0,1.16,0.17,2.24,0.45,3.32v61.47c0,40.19,32.72,72.92,72.96,72.92H642.6
		c40.24,0,72.96-32.72,72.96-72.92V468.44c0-7.34-5.97-13.27-13.31-13.27c-7.34,0-13.27,5.93-13.27,13.27v261.98H301.15V216.37
		h387.82v175.46C688.97,392.57,689.06,393.32,689.18,394.02z M688.97,757.04v51.48c0,25.55-20.78,46.33-46.37,46.33H347.52
		c-25.59,0-46.37-20.78-46.37-46.33v-51.48H688.97z M301.23,189.78c0.91-24.77,21.28-44.63,46.29-44.63H642.6
		c25.01,0,45.38,19.86,46.29,44.63H301.23z"/>
	<path class="st0" d="M274.56,544.88l-68.9,40.45c0.13,1.16,0.21,2.37,0.21,3.53c0,17.88-14.56,32.44-32.44,32.44
		S141,606.73,141,588.86s14.56-32.44,32.44-32.44c6.97,0,13.44,2.24,18.7,6.01l82.42-48.4L274.56,544.88L274.56,544.88z"/>
</g>
</svg>
