<?xml version="1.0" encoding="utf-8"?>
<!-- Generator: Adobe Illustrator 24.0.1, SVG Export Plug-In . SVG Version: 6.00 Build 0)  -->
<svg version="1.1" id="Layer_1" xmlns="http://www.w3.org/2000/svg" xmlns:xlink="http://www.w3.org/1999/xlink" x="0px" y="0px"
	 viewBox="0 0 40 40" style="enable-background:new 0 0 40 40;" xml:space="preserve">
<style type="text/css">
	.st0{opacity:0.15;fill:#56CFBC;}
	.st1{fill:#56CFBC;}
</style>
<path class="st0" d="M3.33,0h33.33C38.51,0,40,1.49,40,3.33v33.33c0,1.84-1.49,3.33-3.33,3.33H3.33C1.49,40,0,38.51,0,36.67V3.33
	C0,1.49,1.49,0,3.33,0z"/>
<g>
	<g>
		<g>
			<g>
				<path class="st1" d="M31.19,22.12h-0.37v-3.34c0-0.53-0.26-1-0.66-1.28v-0.45c0-0.66-0.54-1.19-1.19-1.19h-0.28l1.06-1.55
					c0.35-0.52,0.22-1.23-0.3-1.59l-7.18-4.89c-0.25-0.17-0.56-0.24-0.86-0.18c-0.3,0.06-0.56,0.23-0.73,0.48l-6.2,9.09h-1.72
					l0.42-4.21c0-0.05,0.04-0.09,0.08-0.1c0.54-0.2,1-0.58,1.31-1.06c0.02-0.04,0.07-0.06,0.12-0.06l2.7,0.27
					c0.19,0.02,0.37-0.12,0.39-0.32c0.02-0.19-0.12-0.37-0.32-0.39l-2.7-0.27c-0.31-0.03-0.61,0.11-0.78,0.38
					c-0.23,0.36-0.57,0.63-0.96,0.78c-0.3,0.11-0.5,0.38-0.53,0.7l-0.42,4.28H11.6l0.66-6.66c0.02-0.24,0.24-0.42,0.48-0.39
					l5.47,0.54c0.19,0.02,0.37-0.12,0.39-0.32s-0.12-0.37-0.32-0.39l-5.47-0.54c-0.63-0.06-1.19,0.4-1.25,1.02l-0.53,5.37h-0.9
					c-0.66,0-1.19,0.54-1.19,1.19v0.31c-0.54,0.25-0.91,0.79-0.91,1.42v12.02c0,0.86,0.7,1.57,1.57,1.57h19.67
					c0.86,0,1.57-0.7,1.57-1.57v-3.34h0.37c0.44,0,0.79-0.36,0.79-0.79v-3.76C31.99,22.48,31.63,22.12,31.19,22.12z M28.96,16.56
					L28.96,16.56c0.27,0,0.49,0.22,0.49,0.49v0.18c-0.06-0.01-0.13-0.01-0.2-0.01h-1.5l0.45-0.66H28.96z M21.26,8.52
					c0.07-0.1,0.17-0.16,0.28-0.18c0.03-0.01,0.05-0.01,0.08-0.01c0.09,0,0.17,0.03,0.25,0.08l7.18,4.89
					c0.2,0.14,0.25,0.41,0.12,0.61l-2.26,3.31h-0.54l1.11-1.62c0.18-0.26,0.19-0.6,0.04-0.87c-0.21-0.37-0.29-0.8-0.24-1.22
					c0.04-0.31-0.1-0.61-0.36-0.79l-3.72-2.54c-0.26-0.18-0.59-0.19-0.87-0.04c-0.37,0.2-0.8,0.28-1.22,0.22
					c-0.31-0.04-0.62,0.1-0.8,0.36l-4.43,6.5h-0.54L21.26,8.52z M21.42,14.51c-1.54,0-2.8,1.2-2.9,2.71h-1.79l4.16-6.11c0,0,0,0,0,0
					c0.02-0.03,0.06-0.06,0.1-0.06c0.01,0,0.01,0,0.02,0c0.57,0.08,1.16-0.03,1.66-0.31c0.04-0.02,0.09-0.02,0.13,0.01l3.72,2.54
					c0.04,0.03,0.06,0.07,0.05,0.12c-0.07,0.57,0.04,1.16,0.32,1.65c0.02,0.04,0.02,0.09-0.01,0.13l-1.38,2.02h-1.2
					C24.21,15.71,22.95,14.51,21.42,14.51z M23.61,17.22h-4.38c0.1-1.12,1.05-2,2.19-2C22.56,15.22,23.51,16.1,23.61,17.22z
					 M9.63,17.05c0-0.27,0.22-0.49,0.49-0.49h0.83l-0.06,0.66H9.63V17.05z M8.72,18.79c0-0.48,0.39-0.86,0.86-0.86h19.67
					c0.48,0,0.86,0.39,0.86,0.86v0.98H8.72V18.79z M30.12,30.81c0,0.48-0.39,0.86-0.86,0.86H9.58c-0.48,0-0.86-0.39-0.86-0.86v-0.98
					h1.9c0.19,0,0.35-0.16,0.35-0.35s-0.16-0.35-0.35-0.35h-1.9v-8.65h21.4v1.65h-3.35h0c-1.06,0-1.97,0.62-2.41,1.51
					c0,0,0,0.01,0,0.01c0,0.01-0.01,0.02-0.01,0.02c-0.05,0.11-0.1,0.22-0.13,0.34c0,0,0,0,0,0c-0.08,0.25-0.12,0.52-0.12,0.79
					c0,1.47,1.2,2.67,2.67,2.67h0h3.35v1.65H12.88c-0.19,0-0.35,0.16-0.35,0.35c0,0.19,0.16,0.35,0.35,0.35h17.24V30.81z
					 M31.28,26.68c0,0.05-0.04,0.09-0.09,0.09h-4.43c-0.75,0-1.4-0.42-1.73-1.03c-0.02-0.03-0.03-0.06-0.04-0.08
					c-0.03-0.06-0.05-0.12-0.07-0.18c-0.08-0.21-0.12-0.44-0.12-0.68s0.04-0.47,0.12-0.68c0.02-0.06,0.05-0.12,0.07-0.18
					c0.01-0.03,0.03-0.06,0.04-0.08c0.33-0.61,0.98-1.03,1.73-1.03h4.43c0.05,0,0.09,0.04,0.09,0.09V26.68L31.28,26.68z"/>
			</g>
		</g>
	</g>
	<g>
		<g>
			<g>
				<path class="st1" d="M28.26,23.37c-0.79,0-1.43,0.64-1.43,1.43s0.64,1.43,1.43,1.43c0.79,0,1.43-0.64,1.43-1.43
					S29.05,23.37,28.26,23.37z M28.26,25.52c-0.4,0-0.73-0.33-0.73-0.73c0-0.4,0.33-0.73,0.73-0.73c0.4,0,0.73,0.33,0.73,0.73
					S28.66,25.52,28.26,25.52z"/>
			</g>
		</g>
	</g>
</g>
</svg>
