<?xml version="1.0" encoding="utf-8"?>
<!-- Generator: Adobe Illustrator 24.0.1, SVG Export Plug-In . SVG Version: 6.00 Build 0)  -->
<svg version="1.1" id="Layer_1" xmlns="http://www.w3.org/2000/svg" xmlns:xlink="http://www.w3.org/1999/xlink" x="0px" y="0px"
	 viewBox="0 0 64 64" style="enable-background:new 0 0 64 64;" xml:space="preserve">
<style type="text/css">
	.st0{fill:#73C9BB;}
	.st1{fill:#616C84;}
</style>
<g>
	<path class="st0" d="M32.71,34.8c-0.11-0.02-0.23-0.03-0.34-0.01c-1.15-0.13-2.02-1.11-2.02-2.27c0-0.56-0.45-1.01-1.01-1.01
		c-0.56,0-1.01,0.45-1.01,1.01c0,1.93,1.3,3.63,3.16,4.14v1.01c0,0.56,0.45,1.01,1.01,1.01s1.01-0.45,1.01-1.01v-0.94
		c2.15-0.45,3.62-2.46,3.39-4.64c-0.23-2.19-2.07-3.85-4.27-3.85c-1.26,0-2.28-1.02-2.28-2.28s1.02-2.28,2.28-2.28
		s2.28,1.02,2.28,2.28c0,0.56,0.45,1.01,1.01,1.01c0.56,0,1.01-0.45,1.01-1.01c0-2.03-1.43-3.78-3.41-4.2v-0.92
		c0-0.56-0.45-1.01-1.01-1.01s-1.01,0.45-1.01,1.01v0.98c-2.07,0.57-3.41,2.58-3.12,4.71s2.1,3.72,4.26,3.72
		c1.24,0,2.26,1,2.28,2.24C34.93,33.73,33.95,34.76,32.71,34.8z"/>
	<path class="st0" d="M18.05,29.32c0,8.05,6.53,14.58,14.58,14.58s14.58-6.53,14.58-14.58s-6.53-14.58-14.58-14.58
		C24.58,14.75,18.06,21.27,18.05,29.32z M32.63,16.75c6.94,0,12.57,5.63,12.57,12.57s-5.63,12.57-12.57,12.57
		s-12.57-5.63-12.57-12.57C20.07,22.38,25.69,16.76,32.63,16.75z"/>
	<path class="st1" d="M52.16,46.37l-7.88,3.72c-1.09-2.02-3.17-3.31-5.47-3.37l-7.27-0.2c-1.15-0.03-2.28-0.32-3.3-0.85l-0.74-0.38
		c-3.79-1.97-8.3-1.97-12.09,0.01l0.05-1.68c0.02-0.56-0.42-1.02-0.98-1.03l-7.97-0.22c-0.56-0.02-1.02,0.42-1.03,0.98L5,60.84
		c-0.02,0.56,0.42,1.02,0.98,1.03l7.97,0.22h0.03c0.54,0,0.99-0.43,1.01-0.98l0.02-0.84l2.07-1.11c0.81-0.44,1.76-0.54,2.65-0.29
		l12.37,3.47c0.02,0.01,0.04,0.01,0.07,0.02c0.89,0.19,1.81,0.28,2.72,0.28c1.93,0,3.85-0.42,5.6-1.22
		c0.04-0.02,0.08-0.04,0.12-0.07l17.93-11.6c0.45-0.29,0.59-0.88,0.33-1.34C57.54,46.05,54.59,45.15,52.16,46.37z M7.04,59.89
		l0.43-15.49l5.96,0.16L13,60.06L7.04,59.89z M39.58,59.63c-2.18,0.99-4.62,1.26-6.97,0.78l-12.33-3.46
		c-1.39-0.39-2.87-0.23-4.14,0.45l-1.06,0.57l0.28-10.3c3.35-2.23,7.66-2.46,11.23-0.6l0.74,0.38c1.29,0.67,2.72,1.04,4.17,1.08
		l7.27,0.2c2.04,0.06,3.78,1.51,4.19,3.51l-10.83-0.3c-0.56-0.02-1.02,0.42-1.03,0.98c-0.02,0.56,0.42,1.02,0.98,1.03l11.95,0.33
		h0.03c0.54,0,0.99-0.43,1-0.98c0.01-0.44-0.02-0.87-0.1-1.3l8.08-3.82c0.01,0,0.02-0.01,0.02-0.01c1.15-0.58,2.53-0.39,3.47,0.49
		L39.58,59.63z"/>
	<path class="st0" d="M33.63,11.91V2.36c0-0.56-0.45-1.01-1.01-1.01s-1.01,0.45-1.01,1.01v9.55c0,0.56,0.45,1.01,1.01,1.01
		S33.63,12.47,33.63,11.91z"/>
	<path class="st0" d="M41.17,11.91V7.39c0-0.56-0.45-1.01-1.01-1.01s-1.01,0.45-1.01,1.01v4.52c0,0.56,0.45,1.01,1.01,1.01
		S41.17,12.47,41.17,11.91z"/>
	<path class="st0" d="M26.09,11.91V7.39c0-0.56-0.45-1.01-1.01-1.01s-1.01,0.45-1.01,1.01v4.52c0,0.56,0.45,1.01,1.01,1.01
		S26.09,12.47,26.09,11.91z"/>
</g>
</svg>
