<?xml version="1.0" encoding="utf-8"?>
<!-- Generator: Adobe Illustrator 24.0.1, SVG Export Plug-In . SVG Version: 6.00 Build 0)  -->
<svg version="1.1" id="Layer_1" xmlns="http://www.w3.org/2000/svg" xmlns:xlink="http://www.w3.org/1999/xlink" x="0px" y="0px"
	 viewBox="0 0 40 40" style="enable-background:new 0 0 40 40;" xml:space="preserve">
<style type="text/css">
	.st0{opacity:0.15;fill:#4B8FFF;}
	.st1{fill:#4B8FFF;}
</style>
<path class="st0" d="M3.33,0h33.33C38.51,0,40,1.49,40,3.33v33.33c0,1.84-1.49,3.33-3.33,3.33H3.33C1.49,40,0,38.51,0,36.67V3.33
	C0,1.49,1.49,0,3.33,0z"/>
<g>
	<g>
		<path class="st1" d="M28.19,14.98c-0.63,0-1.33-0.57-1.43-1.18c-0.04-0.24,0.12-0.47,0.36-0.51c0.24-0.04,0.47,0.12,0.51,0.36
			c0.03,0.15,0.33,0.44,0.56,0.44c0.5,0,0.54-0.26,0.56-0.36c0.03-0.18-0.02-0.2-0.07-0.22c-0.03-0.02-0.15-0.06-0.25-0.09
			c-0.65-0.23-1.25-0.47-1.45-0.94c-0.13-0.31-0.12-0.69,0.04-1c0.17-0.33,0.48-0.57,0.89-0.66c0.9-0.21,1.41,0.41,1.52,0.88
			c0.06,0.24-0.08,0.48-0.32,0.54c-0.24,0.06-0.47-0.08-0.54-0.32c-0.06-0.22-0.22-0.3-0.47-0.24c-0.15,0.03-0.25,0.1-0.3,0.2
			c-0.05,0.09-0.04,0.19-0.02,0.25c0.09,0.16,0.72,0.38,0.93,0.45c0.15,0.05,0.27,0.09,0.35,0.14c0.42,0.21,0.62,0.63,0.55,1.14
			C29.53,14.56,28.99,14.98,28.19,14.98z"/>
		<path class="st1" d="M28.2,9.41c-1.91,0-3.46,1.55-3.46,3.46c0,1.91,1.55,3.46,3.46,3.46c1.91,0,3.46-1.55,3.46-3.46
			C31.66,10.96,30.11,9.41,28.2,9.41z M28.2,15.45c-1.42,0-2.58-1.16-2.58-2.58c0-1.42,1.16-2.58,2.58-2.58
			c1.42,0,2.58,1.16,2.58,2.58C30.78,14.29,29.62,15.45,28.2,15.45z"/>
	</g>
	<path class="st1" d="M30.92,21.24h-5.9c-0.24,0-0.44-0.2-0.44-0.44s0.2-0.44,0.44-0.44h5.9c0.24,0,0.44,0.2,0.44,0.44
		S31.16,21.24,30.92,21.24z"/>
	<g>
		<path class="st1" d="M30.92,19.08h-5.9c-0.24,0-0.44-0.2-0.44-0.44c0-0.24,0.2-0.44,0.44-0.44h5.9c0.24,0,0.44,0.2,0.44,0.44
			C31.36,18.88,31.16,19.08,30.92,19.08z"/>
		<path class="st1" d="M30.92,23.01h-5.9c-0.24,0-0.44-0.2-0.44-0.44c0-0.24,0.2-0.44,0.44-0.44h5.9c0.24,0,0.44,0.2,0.44,0.44
			C31.36,22.81,31.16,23.01,30.92,23.01z"/>
	</g>
	<path class="st1" d="M30.92,25.18h-5.9c-0.24,0-0.44-0.2-0.44-0.44s0.2-0.44,0.44-0.44h5.9c0.24,0,0.44,0.2,0.44,0.44
		S31.16,25.18,30.92,25.18z"/>
	<path class="st1" d="M30.92,26.95h-5.9c-0.24,0-0.44-0.2-0.44-0.44c0-0.24,0.2-0.44,0.44-0.44h5.9c0.24,0,0.44,0.2,0.44,0.44
		C31.36,26.75,31.16,26.95,30.92,26.95z"/>
	<g>
		<path class="st1" d="M30.92,28.82h-5.9c-0.24,0-0.44-0.25-0.44-0.49c0-0.24,0.2-0.49,0.44-0.49h5.9c0.24,0,0.44,0.25,0.44,0.49
			C31.36,28.57,31.16,28.82,30.92,28.82z"/>
		<g>
			<path class="st1" d="M30.92,26.95h-5.9c-0.24,0-0.44-0.2-0.44-0.44c0-0.24,0.2-0.44,0.44-0.44h5.9c0.24,0,0.44,0.2,0.44,0.44
				C31.36,26.75,31.16,26.95,30.92,26.95z"/>
			<path class="st1" d="M30.92,30.59h-5.9c-0.24,0-0.44-0.2-0.44-0.44c0-0.24,0.2-0.44,0.44-0.44h5.9c0.24,0,0.44,0.2,0.44,0.44
				C31.36,30.39,31.16,30.59,30.92,30.59z"/>
		</g>
	</g>
	<g>
		<path class="st1" d="M14.68,28.82h-5.9c-0.24,0-0.44-0.25-0.44-0.49c0-0.24,0.2-0.49,0.44-0.49h5.9c0.24,0,0.44,0.25,0.44,0.49
			C15.13,28.57,14.93,28.82,14.68,28.82z"/>
		<g>
			<path class="st1" d="M14.68,26.95h-5.9c-0.24,0-0.44-0.2-0.44-0.44c0-0.24,0.2-0.44,0.44-0.44h5.9c0.24,0,0.44,0.2,0.44,0.44
				C15.13,26.75,14.93,26.95,14.68,26.95z"/>
			<path class="st1" d="M14.68,30.59h-5.9c-0.24,0-0.44-0.2-0.44-0.44c0-0.24,0.2-0.44,0.44-0.44h5.9c0.24,0,0.44,0.2,0.44,0.44
				C15.13,30.39,14.93,30.59,14.68,30.59z"/>
		</g>
	</g>
	<g>
		<path class="st1" d="M23.24,28.82h-6.2c-0.24,0-0.44-0.25-0.44-0.49c0-0.24,0.2-0.49,0.44-0.49h6.2c0.24,0,0.44,0.25,0.44,0.49
			C23.69,28.57,23.49,28.82,23.24,28.82z"/>
		<path class="st1" d="M23.24,30.59h-6.2c-0.24,0-0.44-0.2-0.44-0.44c0-0.24,0.2-0.44,0.44-0.44h6.2c0.24,0,0.44,0.2,0.44,0.44
			C23.69,30.39,23.49,30.59,23.24,30.59z"/>
		<path class="st1" d="M23.24,25.18h-6.2c-0.24,0-0.44-0.2-0.44-0.44s0.2-0.44,0.44-0.44h6.2c0.24,0,0.44,0.2,0.44,0.44
			S23.49,25.18,23.24,25.18z"/>
		<g>
			<path class="st1" d="M23.24,23.01h-6.2c-0.24,0-0.44-0.2-0.44-0.44c0-0.24,0.2-0.44,0.44-0.44h6.2c0.24,0,0.44,0.2,0.44,0.44
				C23.69,22.81,23.49,23.01,23.24,23.01z"/>
			<path class="st1" d="M23.24,26.95h-6.2c-0.24,0-0.44-0.2-0.44-0.44c0-0.24,0.2-0.44,0.44-0.44h6.2c0.24,0,0.44,0.2,0.44,0.44
				C23.69,26.75,23.49,26.95,23.24,26.95z"/>
		</g>
	</g>
	<g>
		<path class="st1" d="M23.54,14.63c-0.12-0.21-0.39-0.29-0.61-0.17l-2.96,1.69c-0.23-0.19-0.52-0.31-0.84-0.31
			c-0.72,0-1.31,0.59-1.31,1.31c0,0.08,0.01,0.15,0.02,0.22l-5.92,3.38c-0.23-0.19-0.52-0.31-0.84-0.31c-0.72,0-1.3,0.59-1.3,1.3
			c0,0.72,0.58,1.31,1.3,1.31c0.72,0,1.3-0.59,1.3-1.31c0-0.08-0.01-0.15-0.02-0.22l5.92-3.39c0.23,0.19,0.53,0.31,0.85,0.31
			c0.72,0,1.3-0.58,1.3-1.3c0-0.08-0.01-0.15-0.02-0.23l2.96-1.69C23.58,15.11,23.66,14.84,23.54,14.63z M11.08,22.17
			c-0.23,0-0.42-0.19-0.42-0.42c0-0.23,0.19-0.42,0.42-0.42c0.23,0,0.42,0.19,0.42,0.42C11.49,21.98,11.31,22.17,11.08,22.17z
			 M19.13,17.57c-0.23,0-0.42-0.19-0.42-0.42c0-0.23,0.19-0.42,0.42-0.42c0.23,0,0.42,0.19,0.42,0.42
			C19.55,17.38,19.36,17.57,19.13,17.57z"/>
	</g>
</g>
</svg>
