<svg xmlns="http://www.w3.org/2000/svg" viewBox="0 0 139 46"><path d="M127.9 0H8.7C8 0 7.2.1 6.4.2c-.8.1-1.5.4-2.2.7-.7.4-1.3.9-1.9 1.4-.5.5-1 1.2-1.3 1.9-.4.6-.6 1.4-.8 2.1-.1.8-.2 1.6-.2 2.4v28.7c0 .8.1 1.5.2 2.3.1.8.4 1.5.7 2.2.4.7.8 1.3 1.4 1.9.5.5 1.2 1 1.9 1.4.7.3 1.4.6 2.2.7.8 0 1.6.1 2.3.1h121.7c.8 0 1.6-.1 2.3-.2.8-.1 1.5-.4 2.2-.7.7-.3 1.3-.8 1.9-1.4.6-.5 1-1.2 1.4-1.9.3-.7.6-1.4.7-2.2.1-.8.2-1.5.2-2.3V8.6c0-.8-.1-1.5-.2-2.3-.1-.8-.4-1.5-.7-2.2-.7-1.4-1.9-2.5-3.3-3.2-.7-.3-1.4-.6-2.2-.7-.9-.1-1.7-.2-2.4-.2h-2.4z" fill="#a6a6a6"/><path d="M9.8 45H8.7c-.7 0-1.5-.1-2.2-.2-.7-.1-1.3-.3-1.9-.6-.5-.3-1.1-.7-1.6-1.2s-.9-1-1.2-1.6c-.3-.6-.5-1.2-.6-1.9-.1-.7-.2-1.5-.2-2.2V8.7c0-.7.1-1.5.2-2.2.1-.7.3-1.3.6-1.9C2.2 4 2.6 3.5 3 3c.5-.5 1-.9 1.6-1.2.6-.3 1.3-.5 1.9-.6C7.3 1.1 8 1 8.8 1h121.5c.7 0 1.4.1 2.2.2.7.1 1.3.3 1.9.6 1.2.6 2.2 1.6 2.8 2.8.3.6.5 1.2.6 1.9.1.7.2 1.4.2 2.2v28.6c0 .7-.1 1.4-.2 2.1-.1.7-.3 1.3-.6 1.9-.3.6-.7 1.1-1.2 1.6s-1 .9-1.6 1.2c-.6.3-1.3.5-1.9.6-.7.1-1.4.2-2.2.2H128L9.8 45z"/><path d="M28.8 23.3c0-1 .3-1.9.7-2.7.5-.8 1.2-1.5 2-2-.5-.7-1.2-1.4-2-1.8-.8-.4-1.7-.7-2.6-.7-2-.2-3.8 1.2-4.8 1.2s-2.5-1.1-4.2-1.1c-1.1 0-2.1.3-3 .9-.9.5-1.7 1.3-2.2 2.2-2.2 3.9-.6 9.5 1.6 12.6 1.1 1.5 2.3 3.2 4 3.2 1.6-.1 2.2-1 4.2-1 1.9 0 2.5 1 4.2 1 1.7 0 2.8-1.5 3.9-3.1.8-1.1 1.4-2.3 1.8-3.6-1-.4-1.9-1.1-2.5-2-.8-.9-1.1-2-1.1-3.1zM25.6 14c.9-1.1 1.4-2.6 1.3-4-1.4.1-2.8.8-3.7 1.9-.5.5-.8 1.1-1.1 1.8-.2.7-.3 1.4-.3 2.1.7 0 1.4-.1 2.1-.5.7-.3 1.2-.7 1.7-1.3zm23.5 17.2h-5.5l-1.3 3.9H40l5.2-14.3h2.4l5.2 14.3h-2.4l-1.3-3.9zm-4.9-1.8h4.4l-2.1-6.3h-.1l-2.2 6.3zm19.9.5c0 3.2-1.7 5.3-4.4 5.3-.7 0-1.3-.1-1.9-.4s-1.1-.8-1.4-1.4v5.2h-2.2V24.7h2.1v1.7c.3-.6.8-1.1 1.4-1.4.6-.3 1.3-.5 1.9-.5 2.7 0 4.5 2.1 4.5 5.4zm-2.2 0c0-2.1-1.1-3.5-2.8-3.5-1.6 0-2.8 1.4-2.8 3.5s1.1 3.5 2.8 3.5c1.7 0 2.8-1.4 2.8-3.5zm13.7 0c0 3.2-1.7 5.3-4.4 5.3-.7 0-1.3-.1-1.9-.4-.6-.3-1.1-.8-1.4-1.4v5.2h-2.2V24.7h2.1v1.7c.3-.6.8-1.1 1.4-1.4.6-.3 1.3-.5 1.9-.5 2.8 0 4.5 2.1 4.5 5.4zm-2.2 0c0-2.1-1.1-3.5-2.8-3.5-1.6 0-2.8 1.4-2.8 3.5s1.1 3.5 2.8 3.5c1.7 0 2.8-1.4 2.8-3.5zm9.9 1.2c.2 1.4 1.5 2.3 3.4 2.3 1.8 0 3.1-.9 3.1-2.2 0-1.1-.8-1.8-2.7-2.2l-1.9-.4c-2.6-.6-3.9-1.9-3.9-3.8 0-2.5 2.2-4.2 5.2-4.2s5.1 1.7 5.2 4.2h-2.2c-.1-1.4-1.3-2.3-3.1-2.3-1.7 0-2.9.9-2.9 2.1 0 1 .8 1.6 2.6 2.1l1.9.3c3 .7 4.2 1.9 4.2 4 0 2.7-2.1 4.3-5.6 4.3-3.2 0-5.4-1.6-5.5-4.2h2.2zm13.5-8.9v2.5h2v1.7h-2v5.7c0 .9.4 1.3 1.3 1.3h.7V35c-.4.1-.8.1-1.2.1-2.1 0-3-.8-3-2.8v-6h-1.5v-1.7h1.5v-2.5h2.2zm3.2 7.7c0-3.3 1.9-5.3 5-5.3 3 0 5 2.1 5 5.3 0 3.3-1.9 5.3-5 5.3s-5-2-5-5.3zm7.7 0c0-2.2-1-3.6-2.8-3.6-1.8 0-2.8 1.3-2.8 3.6s1 3.6 2.8 3.6c1.8-.1 2.8-1.4 2.8-3.6zm4-5.2h2.1v1.8c.1-.6.5-1 .9-1.4.5-.3 1-.5 1.6-.5.2 0 .5 0 .7.1v2c-.3-.1-.6-.1-1-.1-.3 0-.6 0-.9.2-.3.1-.6.3-.8.5-.2.2-.4.5-.5.8-.1.3-.1.6-.1.9v6.2h-2.2V24.7zm15.4 7.3c-.3 1.9-2.1 3.2-4.5 3.2-3.1 0-5-2-5-5.3s1.9-5.4 4.9-5.4c2.9 0 4.7 2 4.7 5.1v.7h-7.4v.1c0 .4 0 .8.1 1.1.1.4.3.7.6 1 .3.3.6.5 1 .6.4.1.7.2 1.1.2.5 0 1-.1 1.5-.3.4-.3.8-.7 1-1.1h2zm-7.3-3.1h5.3c0-.3 0-.7-.2-1-.1-.3-.3-.6-.6-.9-.2-.2-.5-.4-.9-.6-.3-.1-.7-.2-1-.2-.4 0-.7.1-1 .2-.3.1-.6.3-.9.6-.2.2-.4.5-.6.9-.1.3-.1.7-.1 1zM43.9 10c.5 0 .9 0 1.3.2s.8.4 1.1.7c.3.3.5.7.7 1.1.1.4.2.9.1 1.3 0 2.2-1.2 3.5-3.3 3.5h-2.5V10h2.6zm-1.4 5.9h1.3c.3 0 .6 0 .9-.2.3-.1.6-.3.8-.5.2-.2.4-.5.5-.8.1-.3.1-.6.1-.9 0-.3 0-.6-.1-.9-.1-.3-.3-.6-.5-.8-.2-.2-.5-.4-.8-.5-.2-.3-.6-.3-.9-.3h-1.3v4.9zm5.9-1.6c0-.3 0-.7.1-1 .1-.3.3-.6.5-.9.2-.3.5-.5.8-.6.3-.1.7-.2 1-.2.3 0 .7.1 1 .2s.6.3.8.6c.2.3.4.6.5.9s.1.7.1 1c0 .3 0 .7-.1 1-.1.3-.3.6-.5.9-.2.3-.5.5-.8.6-.3.1-.7.2-1 .2-.3 0-.7-.1-1-.2-.3-.1-.6-.3-.8-.6-.2-.3-.4-.6-.5-.9s-.1-.6-.1-1zm3.9 0c0-1.1-.5-1.8-1.4-1.8-.9 0-1.4.7-1.4 1.8s.5 1.8 1.4 1.8c.9 0 1.4-.7 1.4-1.8zm7.6 2.6h-1.1l-1.1-3.8h-.1l-1.1 3.8h-1.1L54 11.7h1l.9 4h.1l1.1-4h1l1.1 4h.1l.9-4h1l-1.3 5.2zm2.7-5.2h1v.8h.1c.1-.3.4-.5.6-.7.3-.2.6-.2.9-.2.3 0 .5 0 .7.1.2.1.5.2.6.4.2.2.3.4.4.6.1.3.1.6.1.9V17h-1v-3.1c0-.8-.4-1.2-1.1-1.2-.2 0-.3 0-.5.1s-.3.2-.4.3c-.1.1-.2.3-.3.4-.1.2-.1.3-.1.5v3h-1v-5.3zm6-2h1v7.2h-1V9.7zm2.5 4.6c0-.3 0-.7.1-1 .1-.3.3-.6.5-.9.2-.3.5-.5.8-.6.3-.1.7-.2 1-.2s.7.1 1 .2.6.3.8.6c.2.3.4.6.5.9.1.3.1.7.1 1 0 .3 0 .7-.1 1-.1.3-.3.6-.5.9s-.5.5-.8.6c-.3.1-.7.2-1 .2-.3 0-.7-.1-1-.2-.3-.1-.6-.3-.8-.6-.2-.3-.4-.6-.5-.9-.1-.3-.1-.6-.1-1zm3.9 0c0-1.1-.5-1.8-1.4-1.8-.9 0-1.4.7-1.4 1.8s.5 1.8 1.4 1.8c.9 0 1.4-.7 1.4-1.8zm2.1 1.1c0-.9.7-1.5 1.9-1.5l1.4-.1v-.4c0-.5-.4-.9-1.1-.9-.6 0-1 .2-1.1.6h-1c.1-.9 1-1.5 2.1-1.5 1.3 0 2.1.6 2.1 1.7v3.5h-1v-.7h-.1c-.2.3-.4.5-.7.6s-.4.3-.7.3c-.2 0-.4 0-.7-.1l-.6-.3c-.2-.1-.3-.3-.4-.5 0-.2-.1-.4-.1-.7zm3.4-.4v-.4l-1.3.1c-.7 0-1 .3-1 .7 0 .5.4.7 1 .7h.5c.2 0 .3-.1.4-.2.1-.1.2-.2.3-.4 0-.2.1-.3.1-.5zm2.4-.7c0-1.6.8-2.7 2.2-2.7.3 0 .7.1.9.2.3.2.5.4.7.7h.1V9.7h1v7.2h-1v-.8h-.1c-.2.3-.4.5-.7.7-.3.1-.6.2-1 .2-1.3 0-2.1-1-2.1-2.7zm1 0c0 1.1.5 1.8 1.4 1.8.9 0 1.4-.7 1.4-1.8s-.5-1.8-1.4-1.8c-.8.1-1.4.7-1.4 1.8zm8.1 0c0-.3 0-.7.1-1s.3-.6.5-.9c.2-.3.5-.5.8-.6.3-.1.7-.2 1-.2s.7.1 1 .2c.3.1.6.3.8.6.2.3.4.6.5.9.1.3.1.7.1 1 0 .3 0 .7-.1 1-.1.3-.3.6-.5.9-.2.3-.5.5-.8.6-.3.1-.7.2-1 .2-.3 0-.7-.1-1-.2-.3-.1-.6-.3-.8-.6-.2-.3-.4-.6-.5-.9-.1-.3-.1-.6-.1-1zm3.9 0c0-1.1-.5-1.8-1.4-1.8-.9 0-1.4.7-1.4 1.8s.5 1.8 1.4 1.8c.9 0 1.4-.7 1.4-1.8zm2.5-2.6h1v.8h.1c.1-.3.4-.5.6-.7.3-.2.6-.2.9-.2.3 0 .5 0 .7.1.2.1.5.2.6.4.2.2.3.4.4.6.1.2.1.5.1.7v3.4h-1v-3.1c0-.8-.4-1.2-1.1-1.2-.2 0-.3 0-.5.1s-.3.2-.4.3c-.1.1-.2.3-.3.4-.1.2-.1.3-.1.5v3h-1v-5.1zm10.2-1.3v1.3h1.1v.9h-1.1v2.7c0 .5.2.8.7.8h.4v.9c-.2 0-.4.1-.6.1-1.1 0-1.6-.4-1.6-1.4v-2.9h-.8v-.9h.8v-1.3h1.1zm2.6-.7h1v2.9h.1c.1-.3.4-.5.6-.7.3-.2.6-.2.9-.2.3 0 .5 0 .7.1.2.1.4.2.6.4.2.2.3.4.4.6.1.2.1.5.1.7v3.3h-1v-3.1c0-.8-.4-1.2-1.1-1.2-.2 0-.4 0-.5.1s-.3.2-.4.3c-.1.1-.2.3-.3.4-.1.2-.1.3-.1.5v3h-1V9.7zm10.5 5.8c-.1.5-.4.9-.9 1.2-.4.3-.9.4-1.4.3-.3 0-.7-.1-1-.2-.3-.1-.6-.3-.8-.6-.2-.3-.4-.6-.5-.9-.1-.3-.1-.7-.1-1 0-.3 0-.7.1-1 .1-.3.3-.6.5-.9.2-.3.5-.5.8-.6.3-.1.7-.2 1-.2 1.5 0 2.3 1 2.3 2.6v.4H118v.1c0 .2 0 .4.1.6.1.2.2.3.3.5.1.1.3.3.5.3.2.1.4.1.6.1.2 0 .5 0 .7-.1.2-.1.4-.3.5-.5h1zm-3.6-1.7h2.6c0-.2 0-.3-.1-.5s-.2-.3-.3-.4c-.1-.1-.3-.2-.4-.3-.2-.1-.3-.1-.5-.1s-.4 0-.5.1c-.2.1-.3.2-.4.3-.1.1-.2.3-.3.4-.1.2-.1.4-.1.5z" fill="#fff"/></svg>