<svg xmlns="http://www.w3.org/2000/svg" viewBox="0 0 449.4 133.2"><path d="M8.6 2.1C12.7-.5 17.8.2 22.5.1h404c3.7.1 7.5-.3 11 .8 4.6 1.6 8.3 5.4 10.1 10 .4 2.3.7 4.7.6 7.1-.1 33.9 0 67.7 0 101.6-1.4 8.3-9.6 14.1-17.8 13.8-138.3-.1-276.7.1-415-.1-6.6-1-12.9-5.7-14.6-12.4-1.1-3.5-.7-7.3-.8-10.9V17C.1 10.8 3.4 5.1 8.6 2.1zM12 3.7c-5.2 2.1-9.1 7.4-8.8 13.2v100.2c.2 7.7 7.7 13.7 15.2 13.1h406.1c5.2-.1 11.1.6 15.4-2.8 4-2.8 5.9-7.7 5.8-12.5v-97c.1-4.8-1.8-9.6-5.8-12.4C437 3 433 2.8 429.4 2.7h-410c-2.5.1-5 .2-7.4 1zM.4 14.7C.3 49.1.3 83.5.3 117.8l1.1-.1v-103h-1z" fill="#a6a6a6"/><path d="M12 3.7c2.4-.7 5-.9 7.5-1h410c3.5.1 7.5.3 10.4 2.7 4 2.7 5.9 7.6 5.8 12.4v97c.1 4.8-1.8 9.7-5.8 12.5-4.4 3.4-10.3 2.8-15.4 2.8H18.4c-7.5.6-15-5.4-15.2-13.1-.1-33.4 0-66.8 0-100.2-.3-5.7 3.6-11 8.8-13.1zm22.4 21.2c-.6 2.3-1.1 4.6-1.1 7v68.9c.1 2.3 0 4.9 1.3 6.9 2.4 1.1 5.3 1.4 7.6 0 5.8-3.2 11.7-6.4 17.3-9.9 10.4-5.6 20.6-11.7 31-17.4 5.2-2.9 10.5-5.8 15.6-8.8 1.7-1.1 3.8-2.5 3.9-4.7.5-2.6-1.8-4.4-3.7-5.6-5.1-2.9-10.2-5.7-15.2-8.7-13.4-7.3-26.4-15.3-39.9-22.4-3.7-2.4-7.4-4.8-11.5-6.5-1.9-.9-3.6.4-5.3 1.2zm108.8-1.5c-3.1 2.1-5.8 5.4-5.6 9.4-.6 4.3 2.2 8.1 5.6 10.4 4.2 1.3 9.3 1.4 12.5-2.1 2.6-2.2 2.7-5.8 2.6-8.9H148v3.1c2.5 0 5 0 7.6.1-1.2 4.6-6.9 7.4-11 4.6-5.4-2.7-4.9-11.4.7-13.6 3.1-1.9 6.2.3 9 1.5.5-.8 1-1.6 1.4-2.5-1.7-1-3.4-1.9-5.1-2.8-2.5-.1-5 .3-7.4.8zm17.6-.3v20.3h12.4c0-1-.1-2-.1-3h-9.2c0-1.9 0-3.9.1-5.8h8.2c-.1-1-.1-2-.2-3.1h-8.1v-5.4h9.2c0-1 .1-2.1.1-3.1-4.2.1-8.3.1-12.4.1zm14.3.1c0 1 .1 2 .1 3 1.9 0 3.8.1 5.7.1v17.2h3.2V26.3c1.9 0 3.8 0 5.7-.1v-3.1c-4.9 0-9.8-.1-14.7.1zm23.9-.1v20.3c1.1 0 2.1 0 3.1.1V23c-1 .1-2.1.1-3.1.1zm5.8 0c0 1 .1 2.1.1 3.1h5.3v17.1c1.2 0 2.4.1 3.6.1V26.2h5.3c0-1.1.1-2.1.1-3.1h-14.4zm22 9.7c-.8 5.4 3.4 9.9 8.4 11.3h4.4c4.9-1.4 8.7-6 8.4-11.2 0-4.9-3.8-8.8-8.2-10.4-6.3-1-13.4 3.6-13 10.3zm24-9.7v20.4h3.1c0-5.1-.1-10.2.1-15.3 3.2 5.1 6.3 10.2 9.5 15.3h3.3V23.2h-3.3c0 4.7.1 9.4-.1 14.1-3.2-4.6-6-9.4-8.9-14.1-1.2-.1-2.5-.1-3.7-.1zm-99.4 34.6c-8.5 2.8-14.6 11.2-15.1 20.1.1 8 4.3 15.9 11.4 19.7 8.8 5.1 21.6 3.7 27.9-4.8 3.8-4.6 4-10.8 3.6-16.5h-20.3v6.3h14.3c-.7 2.4-1.2 5-3 6.9-6 7.2-18.6 6.1-23.8-1.5-3.4-4.3-3.8-10.2-2.2-15.4 2.5-5.3 7.4-9.2 13.3-10.1 4.5-.1 8.8 1.5 12.3 4.3 1.5-1.4 3-2.9 4.3-4.6-6.3-5.2-15.1-7.2-22.7-4.4zm171.8.4v41.5h6.6V83.9c4.7-.2 9.6.7 14.1-1.1 4.8-1.9 8.4-6.8 8-12 .3-6.7-5.8-12.6-12.4-12.6-5.5-.1-10.9 0-16.3-.1zm-48.9.1v41.4h6.5V58.1c-2.2 0-4.4 0-6.5.1zm80.8-.1v41.5h6.6V58.1h-6.6zM191.8 72.5c-3.2.9-6.2 2.9-8.1 5.7-4.1 5.7-3 14.3 2.3 18.9 5.5 4.9 14.8 4.6 19.9-.7 4-4.2 5.1-11 2.6-16.3-2.8-6.2-10.3-9.3-16.7-7.6zm31.1 0c-8.6 1.9-13.3 12.5-9.3 20.2 3.5 7.7 14.2 10.1 21 5.4 6.6-4.1 8-13.9 3.6-20.1-3.3-4.8-9.7-6.9-15.3-5.5zm27.3 1.5c-6.9 3.7-9.3 13.6-4.9 20 3.3 5.9 11.2 8.1 17.2 5.2.5-.7 1.1-1.4 1.6-2.1.7 3.8-.5 8.7-4.7 10-4.1 1.6-8-1.2-10-4.7-1.8.9-3.6 1.7-5.5 2.5 1.1 1.7 2.1 3.4 3.6 4.8 5.1 5 14.3 4.8 19.3-.3 3.1-3.4 3.4-8.1 3.7-12.5V73.2c-2.1-.1-4.2-.1-6.2-.1-.1.6-.4 1.9-.5 2.5-.4-.6-.8-1.2-1.1-1.9-3.8-2-8.8-2.2-12.5.3zm115.9 2.7l-.3 2.1c1.8.6 3.6 1.3 5.4 1.9 2.8-4.7 12.1-3.3 12 2.7-.4-.2-1.1-.7-1.5-.9-4.4-1.3-9.3-1-13.1 1.6-4.7 2.7-5 10.1-1 13.6 4.3 3.7 11.8 3.8 15.4-.9 0 .7.1 2.1.1 2.7h6.2c-.1-6.2.2-12.4-.2-18.6-1-6.3-7.9-9.8-13.8-9-3.6.2-6.7 2.4-9.2 4.8zm-80.3 1.6c-2.8 4.4-2.5 10-.8 14.7.7 1 1.5 2 2.3 3 5.7 6.7 18.1 5.8 22.4-2.1-1.6-1-3.3-2-4.9-3-3.2 4.8-10.9 5-13.7-.2 4-1.8 8.2-3.4 12.2-5.1 2.2-.8 4.5-1.7 6.6-2.8-1-3.5-3.1-6.8-6.3-8.8-5.8-3.9-14.4-1.7-17.8 4.3zm103.7-5.2c3.6 8.2 7.4 16.4 10.8 24.7-1.2 5-4.3 9.5-5.9 14.3 2.1 0 4.3 0 6.4.1 6-12.9 11.3-26.2 17.3-39.1-2.4-.1-4.8-.3-7.2 0-2.6 5.9-4.6 12-7.3 17.8-2.1-6.1-4.8-11.9-7.1-18-2.3.1-4.7.1-7 .2z"/><path d="M230.6 30.1c1.6-3.7 6.5-5.9 10.1-3.5 5.5 2.7 5 11.9-.8 14-3.3 1.8-6.9-.5-9-2.9-.8-2.5-1.6-5.3-.3-7.6zM329.7 64c3.8.2 7.6-.5 11.3.5 4.6 1.5 5.9 8.1 2.5 11.3-3.6 3.7-9.2 1.8-13.7 2.3-.1-4.7-.1-9.4-.1-14.1zM192.8 78.4c2.6-.5 5.7-.7 7.7 1.4 5.1 4.1 3 14.5-4.1 14.8-4.5.8-8.8-3.2-8.7-7.7-.3-3.6 1.8-7.3 5.1-8.5zm31-.1c2.6-.5 5.7-.6 7.7 1.4 4.9 4.2 2.9 14.5-4.1 14.8-4.5.8-8.8-3.2-8.7-7.7-.5-3.5 1.8-7.2 5.1-8.5zm31 0c3.5-1.1 7.7.3 9.1 4 2.9 5.1-1 13.3-7.4 12.2-8.4-.4-9.2-13.8-1.7-16.2zm34.9 7.4c.6-3.4 2.8-7.5 6.7-7.7 2.4-.5 4.7.5 6.1 2.5-4.3 1.8-8.5 3.7-12.8 5.2zm81.3 4.9c2.2-4.7 8.4-4 12.4-2.3-.9 4.8-5.8 7.2-10.3 6.1-1-1.1-2.5-2.1-2.1-3.8z"/><path d="M447.6 10.8c.9 2.2 1.8 4.5 1.8 7v92c-.1 3.2.6 6.7-1.2 9.6.1-33.8 0-67.7 0-101.6 0-2.3-.2-4.7-.6-7z" fill="#1c1c1c"/><path d="M.4 14.7h1v103l-1.1.1c0-34.3 0-68.7.1-103.1z" fill="#919191"/><path d="M34.4 24.9c1.7-.8 3.5-2.1 5.4-1.2 4 1.7 7.8 4.1 11.5 6.5-2.1-.6-4.2-1.1-6.3-1.7-1 1.2-2.1 2.4-3.1 3.6-2.5-2.5-5-4.9-7.5-7.2z" fill="#0fd975"/><path d="M143.2 23.4c2.4-.6 4.9-.9 7.4-1 1.8.9 3.4 1.8 5.1 2.8-.4.9-.9 1.7-1.4 2.5-2.8-1.2-6-3.3-9-1.5-5.6 2.2-6.1 10.9-.7 13.6 4.1 2.9 9.8 0 11-4.6-2.5-.1-5-.1-7.6-.1V32h10.3c.1 3.2 0 6.7-2.6 8.9-3.1 3.5-8.3 3.4-12.5 2.1-3.4-2.3-6.2-6.1-5.6-10.4-.2-3.8 2.5-7 5.6-9.2zm55.8-.3c1 0 2.1-.1 3.1-.1v20.5c-1.1 0-2.1 0-3.1-.1V23.1zm51.8 0h3.8c3 4.7 5.8 9.5 8.9 14.1.1-4.7 0-9.4.1-14.1h3.3v20.3h-3.3c-3.2-5.1-6.4-10.2-9.5-15.3-.2 5.1-.1 10.2-.1 15.3h-3.1c-.1-6.8-.1-13.5-.1-20.3z" fill="#fdfdfd"/><path d="M160.8 23.1h12.4c0 1-.1 2.1-.1 3.1h-9.2v5.4h8.1c.1 1 .1 2 .2 3.1H164c-.1 1.9-.1 3.9-.1 5.8h9.2c.1 1 .1 2 .1 3h-12.4V23.1zm14.3.1c4.9-.2 9.8-.1 14.7-.1v3.1c-1.9 0-3.8 0-5.7.1v17.2h-3.2V26.3c-1.9 0-3.8 0-5.7-.1 0-1 0-2-.1-3zm29.7-.1h14.3c0 1-.1 2.1-.1 3.1h-5.3v17.2c-1.2 0-2.4-.1-3.6-.1V26.2h-5.3c.1-1 0-2.1 0-3.1zm-53.4 34.6c7.7-2.8 16.4-.8 22.6 4.4-1.3 1.7-2.8 3.1-4.3 4.6-3.5-2.7-7.8-4.3-12.3-4.3-5.9.9-10.8 4.8-13.3 10.1-1.5 5.1-1.2 11 2.2 15.4 5.2 7.6 17.8 8.7 23.8 1.5 1.8-1.9 2.3-4.5 3-6.9h-14.3v-6.3h20.3c.4 5.6.2 11.9-3.6 16.5-6.3 8.5-19.1 9.8-27.9 4.8-7.1-3.9-11.3-11.8-11.4-19.7.6-8.9 6.6-17.2 15.2-20.1zm171.8.4c5.4 0 10.9-.1 16.3 0 6.6 0 12.7 5.9 12.4 12.6.4 5.3-3.2 10.1-8 12-4.5 1.8-9.4.9-14.1 1.1v15.7h-6.6V58.1zm6.5 5.9c0 4.7 0 9.4.1 14.1 4.5-.4 10.1 1.4 13.7-2.3 3.4-3.3 2.1-9.9-2.5-11.3-3.6-1.1-7.5-.4-11.3-.5zm-55.4-5.8h6.5v41.5h-6.5V58.2zm80.8-.1h6.6v41.5h-6.6c0-13.8-.1-27.6 0-41.5zM191.8 72.5c6.4-1.7 13.9 1.4 16.7 7.6 2.6 5.3 1.5 12-2.6 16.3-5.1 5.3-14.4 5.6-19.9.7-5.3-4.6-6.3-13.2-2.3-18.9 1.9-2.8 4.9-4.8 8.1-5.7zm1 5.9c-3.3 1.2-5.4 4.9-5.1 8.5-.1 4.5 4.2 8.5 8.7 7.7 7.1-.3 9.2-10.7 4.1-14.8-1.9-2.1-5.1-2-7.7-1.4zm30.1-5.9c5.6-1.3 12 .7 15.4 5.5 4.4 6.2 3 16-3.6 20.1-6.8 4.7-17.5 2.3-21-5.4-4.2-7.8.5-18.4 9.2-20.2zm.9 5.8c-3.4 1.2-5.6 5-5.1 8.5-.1 4.4 4.2 8.4 8.7 7.7 7.1-.3 9-10.6 4.1-14.8-2-2-5.1-1.9-7.7-1.4zm26.4-4.3c3.8-2.5 8.7-2.3 12.6-.3.4.6.8 1.2 1.1 1.9.1-.6.4-1.9.5-2.5 2.1 0 4.1.1 6.2.1-.1 7.9 0 15.8 0 23.7-.3 4.3-.6 9.1-3.7 12.5-4.9 5.2-14.2 5.3-19.3.3-1.5-1.4-2.5-3.1-3.6-4.8 1.8-.8 3.7-1.6 5.5-2.5 1.9 3.5 5.9 6.2 10 4.7 4.2-1.2 5.4-6.1 4.7-10-.5.7-1.1 1.4-1.6 2.1-6 2.9-13.9.8-17.2-5.2-4.5-6.5-2.1-16.4 4.8-20zm4.6 4.3c-7.5 2.4-6.7 15.8 1.6 16.2 6.4 1.1 10.4-7.1 7.4-12.2-1.3-3.6-5.5-5.1-9-4zm111.3-1.6c2.5-2.5 5.6-4.7 9.3-4.7 5.9-.8 12.8 2.8 13.8 9 .4 6.2 0 12.4.2 18.6h-6.2c0-.7-.1-2.1-.1-2.7-3.6 4.7-11.2 4.6-15.4.9-4-3.5-3.7-10.9 1-13.6 3.9-2.6 8.8-2.9 13.1-1.6.4.2 1.1.7 1.5.9.1-6-9.2-7.4-12-2.7-1.8-.6-3.6-1.3-5.4-1.9 0-.8.1-1.5.2-2.2zm4.9 13.9c-.3 1.7 1.2 2.7 2.1 3.8 4.5 1.1 9.4-1.4 10.3-6.1-4-1.7-10.2-2.4-12.4 2.3zm-85.2-12.3c3.4-6 12-8.2 17.8-4.4 3.1 2 5.2 5.3 6.3 8.8-2.1 1.1-4.4 2-6.6 2.8-4.1 1.8-8.2 3.3-12.2 5.1 2.9 5.2 10.5 5 13.7.2 1.6 1 3.3 2 4.9 3-4.3 7.9-16.6 8.7-22.4 2.1-.8-1-1.6-2-2.3-3-1.7-4.6-2-10.2.8-14.6zm3.9 7.4c4.4-1.5 8.5-3.4 12.8-5.1-1.4-2-3.6-3-6.1-2.5-4 0-6.1 4.1-6.7 7.6zm99.8-12.6c2.3-.1 4.7-.1 7-.1 2.3 6 5 11.9 7.1 18 2.7-5.8 4.7-11.9 7.3-17.8 2.4-.3 4.8-.1 7.2 0-6 12.9-11.3 26.1-17.3 39.1-2.1 0-4.3 0-6.4-.1 1.6-4.9 4.7-9.4 5.9-14.3-3.4-8.4-7.2-16.6-10.8-24.8z" fill="#fff"/><path d="M226.8 32.8c-.4-6.7 6.7-11.3 12.9-10.3 4.4 1.6 8.3 5.5 8.2 10.4.3 5.2-3.5 9.8-8.4 11.2h-4.4c-4.8-1.4-9.1-5.9-8.3-11.3zm3.8-2.7c-1.3 2.4-.5 5.1.3 7.5 2.2 2.5 5.8 4.7 9 2.9 5.8-2 6.3-11.3.8-14-3.5-2.3-8.5-.2-10.1 3.6z" fill="#fefefe"/><path d="M33.3 31.8c0-2.4.5-4.7 1.1-7 2.5 2.3 5 4.7 7.4 7.2 11.5 11.4 22.7 23.1 34.4 34.2-7.3 7.4-14.7 14.8-22 22.1-6.5-7.4-13.5-14.3-20.9-20.8V31.8z" fill="#00cfff"/><path d="M41.8 32c1-1.2 2.1-2.4 3.1-3.6 2.1.5 4.2 1.1 6.3 1.7 13.5 7.1 26.5 15.1 39.9 22.4-5.4 4.1-9.7 9.3-14.6 14l-.3-.3C64.5 55.1 53.3 43.4 41.8 32z" fill="#00f076"/><path d="M76.6 66.5c4.8-4.7 9.2-9.9 14.6-14 5 3 10.2 5.8 15.2 8.7 1.9 1.2 4.3 3 3.7 5.6-.1 2.3-2.2 3.6-3.9 4.7-5.2 3-10.4 5.9-15.6 8.8-4.7-4.6-9.2-9.4-14-13.8z" fill="#ffca00"/><path d="M76.2 66.2l.3.3c4.9 4.4 9.3 9.2 14 13.9-10.4 5.8-20.6 11.8-31 17.4-3.1-1.7-5.6-4.3-7.9-7l2.5-2.5c7.5-7.4 14.8-14.7 22.1-22.1z" fill="#f73548"/><path d="M33.3 67.5c7.4 6.5 14.4 13.4 20.9 20.8-.9.8-1.7 1.7-2.5 2.5-5.7 5.6-11.2 11.4-17 16.9-1.3-2.1-1.2-4.6-1.3-6.9-.1-11.1-.1-22.2-.1-33.3z" fill="#00e0ff"/><path d="M34.6 107.7c5.8-5.5 11.3-11.3 17-16.9 2.3 2.7 4.8 5.3 7.9 7-5.7 3.5-11.5 6.7-17.3 9.9-2.3 1.4-5.2 1.2-7.6 0z" fill="#e72a50"/></svg>