<svg width="16" height="16" fill="none" xmlns="http://www.w3.org/2000/svg"><path fill-rule="evenodd" clip-rule="evenodd" d="M3.6 5.424v10.213H.201V5.424h3.4zm.224-3.16c0 .98-.738 1.766-1.923 1.766h-.022C.738 4.03 0 3.245 0 2.264 0 1.263.76.5 1.923.5s1.88.763 1.901 1.764zM15.86 9.781v5.856h-3.4v-5.464c0-1.373-.492-2.31-1.722-2.31-.94 0-1.499.632-1.744 1.242-.09.219-.112.523-.112.828v5.704h-3.4s.045-9.255 0-10.213h3.4V6.87c.45-.696 1.259-1.687 3.064-1.687 2.237 0 3.914 1.46 3.914 4.597z" fill="#fff"/></svg>