<?xml version="1.0" encoding="utf-8"?>
<!-- Generator: Adobe Illustrator 24.0.1, SVG Export Plug-In . SVG Version: 6.00 Build 0)  -->
<svg version="1.1" id="Layer_1" xmlns="http://www.w3.org/2000/svg" xmlns:xlink="http://www.w3.org/1999/xlink" x="0px" y="0px"
	 viewBox="0 0 40 40" style="enable-background:new 0 0 40 40;" xml:space="preserve">
<style type="text/css">
	.st0{opacity:0.15;fill:#4B8FFF;}
	.st1{fill:#4B8FFF;}
</style>
<path class="st0" d="M3.33,0h33.33C38.51,0,40,1.49,40,3.33v33.33c0,1.84-1.49,3.33-3.33,3.33H3.33C1.49,40,0,38.51,0,36.67V3.33
	C0,1.49,1.49,0,3.33,0z"/>
<g>
	<path class="st1" d="M31.45,31.1H8.55c-0.2,0-0.37-0.17-0.37-0.37v-2.76c0-0.2,0.17-0.37,0.37-0.37h22.91
		c0.2,0,0.37,0.17,0.37,0.37v2.76C31.82,30.93,31.66,31.1,31.45,31.1z M8.91,30.36h22.17v-2.03H8.91V30.36z"/>
	<path class="st1" d="M25.63,28.33H14.37c-0.2,0-0.37-0.17-0.37-0.37V9.27c0-0.2,0.17-0.37,0.37-0.37h11.26
		c0.2,0,0.37,0.17,0.37,0.37v18.7C26,28.17,25.83,28.33,25.63,28.33z M14.74,27.6h10.52V9.64H14.74V27.6z"/>
	<path class="st1" d="M29.97,28.33h-4.34c-0.2,0-0.37-0.17-0.37-0.37V13.94c0-0.2,0.17-0.37,0.37-0.37h4.34
		c0.2,0,0.37,0.17,0.37,0.37v14.02C30.34,28.17,30.18,28.33,29.97,28.33z M26,27.6h3.61V14.31H26V27.6z"/>
	<path class="st1" d="M14.37,28.33h-4.34c-0.2,0-0.37-0.17-0.37-0.37V13.94c0-0.2,0.17-0.37,0.37-0.37h4.34
		c0.2,0,0.37,0.17,0.37,0.37v14.02C14.74,28.17,14.58,28.33,14.37,28.33z M10.4,27.6H14V14.31H10.4V27.6z"/>
	<path class="st1" d="M18.64,14.08h-2.33c-0.2,0-0.37-0.17-0.37-0.37v-2.4c0-0.2,0.17-0.37,0.37-0.37h2.33
		c0.2,0,0.37,0.17,0.37,0.37v2.4C19.01,13.92,18.85,14.08,18.64,14.08z M16.68,13.34h1.59v-1.66h-1.59V13.34z"/>
	<path class="st1" d="M23.69,14.08h-2.33c-0.2,0-0.37-0.17-0.37-0.37v-2.4c0-0.2,0.17-0.37,0.37-0.37h2.33
		c0.2,0,0.37,0.17,0.37,0.37v2.4C24.06,13.92,23.89,14.08,23.69,14.08z M21.73,13.34h1.59v-1.66h-1.59V13.34z"/>
	<path class="st1" d="M18.64,18.03h-2.33c-0.2,0-0.37-0.17-0.37-0.37v-2.4c0-0.2,0.17-0.37,0.37-0.37h2.33
		c0.2,0,0.37,0.17,0.37,0.37v2.4C19.01,17.87,18.85,18.03,18.64,18.03z M16.68,17.29h1.59v-1.66h-1.59V17.29z"/>
	<path class="st1" d="M23.69,18.03h-2.33c-0.2,0-0.37-0.17-0.37-0.37v-2.4c0-0.2,0.17-0.37,0.37-0.37h2.33
		c0.2,0,0.37,0.17,0.37,0.37v2.4C24.06,17.87,23.89,18.03,23.69,18.03z M21.73,17.29h1.59v-1.66h-1.59V17.29z"/>
	<path class="st1" d="M18.64,21.98h-2.33c-0.2,0-0.37-0.17-0.37-0.37v-2.4c0-0.2,0.17-0.37,0.37-0.37h2.33
		c0.2,0,0.37,0.17,0.37,0.37v2.4C19.01,21.82,18.85,21.98,18.64,21.98z M16.68,21.24h1.59v-1.67h-1.59V21.24z"/>
	<path class="st1" d="M23.69,21.98h-2.33c-0.2,0-0.37-0.17-0.37-0.37v-2.4c0-0.2,0.17-0.37,0.37-0.37h2.33
		c0.2,0,0.37,0.17,0.37,0.37v2.4C24.06,21.82,23.89,21.98,23.69,21.98z M21.73,21.24h1.59v-1.67h-1.59V21.24z"/>
	<path class="st1" d="M18.64,25.93h-2.33c-0.2,0-0.37-0.17-0.37-0.37v-2.4c0-0.2,0.17-0.37,0.37-0.37h2.33
		c0.2,0,0.37,0.17,0.37,0.37v2.4C19.01,25.77,18.85,25.93,18.64,25.93z M16.68,25.19h1.59v-1.66h-1.59V25.19z"/>
	<path class="st1" d="M23.69,25.93h-2.33c-0.2,0-0.37-0.17-0.37-0.37v-2.4c0-0.2,0.17-0.37,0.37-0.37h2.33
		c0.2,0,0.37,0.17,0.37,0.37v2.4C24.06,25.77,23.89,25.93,23.69,25.93z M21.73,25.19h1.59v-1.66h-1.59V25.19z"/>
	<path class="st1" d="M12.92,18.43h-1.45c-0.2,0-0.37-0.17-0.37-0.37v-2.4c0-0.2,0.17-0.37,0.37-0.37h1.45
		c0.2,0,0.37,0.17,0.37,0.37v2.4C13.29,18.26,13.13,18.43,12.92,18.43z M11.84,17.69h0.71v-1.66h-0.71V17.69z"/>
	<path class="st1" d="M12.92,22.48h-1.45c-0.2,0-0.37-0.17-0.37-0.37v-2.4c0-0.2,0.17-0.37,0.37-0.37h1.45
		c0.2,0,0.37,0.17,0.37,0.37v2.4C13.29,22.31,13.13,22.48,12.92,22.48z M11.84,21.74h0.71v-1.66h-0.71V21.74z"/>
	<path class="st1" d="M12.92,26.52h-1.45c-0.2,0-0.37-0.17-0.37-0.37v-2.4c0-0.2,0.17-0.37,0.37-0.37h1.45
		c0.2,0,0.37,0.17,0.37,0.37v2.4C13.29,26.36,13.13,26.52,12.92,26.52z M11.84,25.79h0.71v-1.66h-0.71V25.79z"/>
	<path class="st1" d="M28.53,18.43h-1.45c-0.2,0-0.37-0.17-0.37-0.37v-2.4c0-0.2,0.17-0.37,0.37-0.37h1.45
		c0.2,0,0.37,0.17,0.37,0.37v2.4C28.89,18.26,28.73,18.43,28.53,18.43z M27.45,17.69h0.71v-1.66h-0.71V17.69z"/>
	<path class="st1" d="M28.53,22.48h-1.45c-0.2,0-0.37-0.17-0.37-0.37v-2.4c0-0.2,0.17-0.37,0.37-0.37h1.45
		c0.2,0,0.37,0.17,0.37,0.37v2.4C28.89,22.31,28.73,22.48,28.53,22.48z M27.45,21.74h0.71v-1.66h-0.71V21.74z"/>
	<path class="st1" d="M28.53,26.52h-1.45c-0.2,0-0.37-0.17-0.37-0.37v-2.4c0-0.2,0.17-0.37,0.37-0.37h1.45
		c0.2,0,0.37,0.17,0.37,0.37v2.4C28.89,26.36,28.73,26.52,28.53,26.52z M27.45,25.79h0.71v-1.66h-0.71V25.79z"/>
</g>
</svg>
