<svg id="Layer_1" data-name="Layer 1" xmlns="http://www.w3.org/2000/svg" viewBox="0 0 40 40"><defs><style>.cls-1,.cls-2{fill:#56cfbc;}.cls-1{opacity:0.15;}</style></defs><title>A centralized market</title><rect class="cls-1" width="40" height="40" rx="3.33"/><path class="cls-2" d="M17,24.85h-9a.42.42,0,0,1-.41-.41v-9A.41.41,0,0,1,7.93,15H17a.41.41,0,0,1,.41.41v9.05A.41.41,0,0,1,17,24.85ZM8.34,24h8.23V15.8H8.34Z"/><path class="cls-2" d="M14,24.85H10.88a.42.42,0,0,1-.41-.41V19.91a.42.42,0,0,1,.41-.41H14a.41.41,0,0,1,.4.41v4.53A.41.41,0,0,1,14,24.85ZM11.29,24h2.34V20.32H11.29Z"/><path class="cls-2" d="M18.26,15.8H6.66a.41.41,0,0,1-.39-.29.38.38,0,0,1,.15-.45l5.8-4.18a.42.42,0,0,1,.48,0l5.8,4.18a.41.41,0,0,1-.24.74ZM7.93,15H17l-4.53-3.26Z"/><path class="cls-2" d="M32.07,29.2H23a.41.41,0,0,1-.41-.41v-9a.41.41,0,0,1,.41-.41h9.05a.41.41,0,0,1,.41.41v9.05A.41.41,0,0,1,32.07,29.2Zm-8.64-.82h8.23V20.15H23.43Z"/><path class="cls-2" d="M29.12,29.2H26a.4.4,0,0,1-.4-.41V24.26a.41.41,0,0,1,.4-.41h3.16a.42.42,0,0,1,.41.41v4.53A.41.41,0,0,1,29.12,29.2Zm-2.75-.82h2.34V24.67H26.37Z"/><path class="cls-2" d="M33.34,20.15H21.74a.41.41,0,0,1-.39-.29.41.41,0,0,1,.15-.45l5.8-4.18a.42.42,0,0,1,.48,0l5.8,4.18a.38.38,0,0,1,.15.45A.41.41,0,0,1,33.34,20.15ZM23,19.33h9.06l-4.53-3.26Z"/><path class="cls-2" d="M21.35,29.2H12.46a.41.41,0,0,1-.41-.41v-2.9a.41.41,0,0,1,.41-.41.41.41,0,0,1,.41.41v2.49h8.48a.41.41,0,0,1,0,.82Z"/><path class="cls-2" d="M13.84,27.68a.42.42,0,0,1-.29-.12l-1.09-1.09-1.09,1.08a.4.4,0,0,1-.57,0,.41.41,0,0,1,0-.58l1.37-1.37a.41.41,0,0,1,.58,0L14.13,27a.41.41,0,0,1,0,.58A.4.4,0,0,1,13.84,27.68Z"/><path class="cls-2" d="M27.48,14.52a.41.41,0,0,1-.41-.41V11.62H18.59a.41.41,0,0,1,0-.82h8.9a.4.4,0,0,1,.29.12.45.45,0,0,1,.12.29v2.9A.41.41,0,0,1,27.48,14.52Z"/><path class="cls-2" d="M27.48,14.52a.42.42,0,0,1-.29-.12L25.81,13a.41.41,0,0,1,.58-.58l1.09,1.09,1.09-1.08a.41.41,0,1,1,.58.58L27.77,14.4A.38.38,0,0,1,27.48,14.52Z"/></svg>