<svg id="Layer_1" data-name="Layer 1" xmlns="http://www.w3.org/2000/svg" viewBox="0 0 40 40"><defs><style>.cls-1,.cls-2{fill:#4b8fff;}.cls-1{opacity:0.15;}</style></defs><title>Normalized listings</title><rect class="cls-1" width="40" height="40" rx="3.33"/><path class="cls-2" d="M10.42,31.61a.36.36,0,0,1-.36-.36V17.88a.38.38,0,0,1,.16-.31L19,11.88a.36.36,0,0,1,.4,0l8.8,5.69a.39.39,0,0,1,.17.31V20a.37.37,0,1,1-.74,0V18.08l-8.43-5.45-8.44,5.45V31.25A.36.36,0,0,1,10.42,31.61Z"/><path class="cls-2" d="M31.24,31.61H10.42a.37.37,0,0,1,0-.73H31.24a.37.37,0,1,1,0,.73Z"/><path class="cls-2" d="M21.29,31.61H18.93a.37.37,0,0,1-.37-.36V25.16a.37.37,0,0,1,.37-.36h2.36a.37.37,0,0,1,.37.36v6.09A.37.37,0,0,1,21.29,31.61Zm-2-.73h1.62V25.53H19.3Z"/><path class="cls-2" d="M25.24,31.61H22.88a.37.37,0,0,1-.37-.36v-8a.38.38,0,0,1,.37-.37h2.36a.38.38,0,0,1,.37.37v8A.37.37,0,0,1,25.24,31.61Zm-2-.73h1.62V23.6H23.25Z"/><path class="cls-2" d="M29.19,31.61H26.83a.36.36,0,0,1-.37-.36v-9.7a.37.37,0,0,1,.37-.37h2.36a.38.38,0,0,1,.37.37v9.7A.37.37,0,0,1,29.19,31.61Zm-2-.73h1.63v-9H27.19Z"/><path class="cls-2" d="M29.7,19.27a.36.36,0,0,1-.2-.06L19.23,12.63,9,19.21a.37.37,0,0,1-.38,0,.38.38,0,0,1-.19-.32V15.54a.36.36,0,0,1,.17-.3L19,8.45a.36.36,0,0,1,.4,0l4.6,3v-1a.37.37,0,0,1,.37-.36h3.16a.36.36,0,0,1,.37.36V14l2,1.28a.35.35,0,0,1,.16.3V18.9a.36.36,0,0,1-.19.32A.34.34,0,0,1,29.7,19.27ZM9.13,15.74v2.49L19,11.88a.36.36,0,0,1,.4,0l9.9,6.35V15.74l-2-1.27a.37.37,0,0,1-.16-.31V10.81H24.77v1.3a.37.37,0,0,1-.2.32.35.35,0,0,1-.37,0l-5-3.23Z"/></svg>