<?xml version="1.0" encoding="utf-8"?>
<!-- Generator: Adobe Illustrator 24.0.1, SVG Export Plug-In . SVG Version: 6.00 Build 0)  -->
<svg version="1.1" id="Layer_1" xmlns="http://www.w3.org/2000/svg" xmlns:xlink="http://www.w3.org/1999/xlink" x="0px" y="0px"
	 viewBox="0 0 40 40" style="enable-background:new 0 0 40 40;" xml:space="preserve">
<style type="text/css">
	.st0{opacity:0.15;fill:#EB5757;}
	.st1{fill:#EB5757;}
</style>
<path class="st0" d="M3.33,0h33.33C38.51,0,40,1.49,40,3.33v33.33c0,1.84-1.49,3.33-3.33,3.33H3.33C1.49,40,0,38.51,0,36.67V3.33
	C0,1.49,1.49,0,3.33,0z"/>
<g>
	<path class="st1" d="M31.12,29.02l-3.28-3.28c-0.29-0.29-0.75-0.28-1.04,0l-0.1,0.1l-0.78-0.78c0.9-1.06,1.39-2.38,1.39-3.78
		c0-1.57-0.61-3.04-1.72-4.14c-0.45-0.45-0.97-0.82-1.51-1.09v-6.3c0-0.81-0.66-1.47-1.47-1.47H13.1l-0.14,0.14v0l-4.51,4.51v17.33
		c0,0.81,0.66,1.47,1.47,1.47h12.7c0.81,0,1.47-0.66,1.47-1.47v-3.75c0.41-0.2,0.79-0.46,1.15-0.76l0.78,0.78l-0.24,0.24
		c-0.29,0.29-0.29,0.75,0,1.04l3.28,3.28c0.29,0.29,0.66,0.43,1.04,0.43c0.38,0,0.75-0.14,1.04-0.43c0.28-0.28,0.43-0.64,0.43-1.04
		C31.55,29.66,31.4,29.3,31.12,29.02z M26.33,21.28c0,1.3-0.51,2.53-1.43,3.45c-1.9,1.9-5,1.9-6.91,0c-1.9-1.9-1.9-5,0-6.91
		c0.95-0.95,2.2-1.43,3.45-1.43c1.25,0,2.5,0.48,3.45,1.43C25.82,18.75,26.33,19.97,26.33,21.28z M12.81,9.95v2.7h-2.7L12.81,9.95z
		 M23.1,30.26c0,0.27-0.22,0.49-0.49,0.49H9.91c-0.27,0-0.49-0.22-0.49-0.49V13.62h3.88c0.27,0,0.49-0.22,0.49-0.49V9.25h8.82
		c0.27,0,0.49,0.22,0.49,0.49v5.91c-1.99-0.58-4.23-0.09-5.8,1.48c-2.29,2.29-2.29,6,0,8.29c1.14,1.14,2.64,1.71,4.14,1.71
		c0.56,0,1.11-0.08,1.65-0.24V30.26z M30.43,30.4c-0.19,0.19-0.5,0.19-0.69,0l-3.11-3.11l0.69-0.69l3.11,3.11
		c0.09,0.09,0.14,0.21,0.14,0.34C30.58,30.19,30.53,30.31,30.43,30.4z"/>
	<path class="st1" d="M19.72,18.86c-0.19-0.19-0.5-0.19-0.69,0c-0.65,0.65-1,1.5-1,2.42s0.36,1.77,1,2.42
		c0.1,0.1,0.22,0.14,0.35,0.14c0.12,0,0.25-0.05,0.35-0.14c0.19-0.19,0.19-0.5,0-0.69C19.26,22.54,19,21.93,19,21.28
		c0-0.65,0.25-1.27,0.72-1.73C19.91,19.36,19.91,19.05,19.72,18.86z"/>
	<path class="st1" d="M10.89,21.95h2.93v0.98h-2.93V21.95z"/>
	<path class="st1" d="M10.89,24.88h4.4v0.98h-4.4V24.88z"/>
	<path class="st1" d="M10.89,19.02h2.93V20h-2.93V19.02z"/>
	<path class="st1" d="M10.89,16.09h4.4v0.98h-4.4V16.09z"/>
</g>
</svg>
