<?xml version="1.0" encoding="utf-8"?>
<!-- Generator: Adobe Illustrator 24.0.1, SVG Export Plug-In . SVG Version: 6.00 Build 0)  -->
<svg version="1.1" id="Layer_1" xmlns="http://www.w3.org/2000/svg" xmlns:xlink="http://www.w3.org/1999/xlink" x="0px" y="0px"
	 viewBox="0 0 64 64" style="enable-background:new 0 0 64 64;" xml:space="preserve">
<style type="text/css">
	.st0{fill:#616C84;}
	.st1{fill:#73C9BB;}
</style>
<g>
	<path class="st0" d="M30,34.66c-0.95,0-1.87-0.34-2.61-1.01c-0.46-0.42-0.83-0.92-1.1-1.49l-3.84-8.22
		c-1.09-2.33-0.08-5.11,2.25-6.2c4.78-2.09,12.31-0.64,17.3,0.32l0.19,0.04c1.94,0.37,3.97,0.1,5.86-0.78l0.91-0.43
		c0.5-0.23,1.08-0.02,1.31,0.48c0.23,0.49,0.02,1.08-0.48,1.31l-0.92,0.43c-2.27,1.06-4.71,1.38-7.07,0.93L41.63,20
		c-4.75-0.91-11.92-2.29-16.11-0.46c-1.32,0.62-1.9,2.22-1.27,3.56l3.84,8.22c0.15,0.33,0.37,0.62,0.63,0.86
		c0.83,0.75,1.74,0.48,2.1,0.33c0.65-0.28,1.35-0.95,1.38-2.02c0.04-1.47-0.44-3.25-1.45-5.29c-0.24-0.49-0.04-1.08,0.45-1.32
		c0.49-0.24,1.08-0.04,1.32,0.45c1.15,2.33,1.71,4.43,1.65,6.23c-0.05,1.64-1.06,3.13-2.58,3.77C31.07,34.55,30.53,34.66,30,34.66z"
		/>
	<path class="st0" d="M48.98,38.43c-0.16,0-0.33-0.04-0.48-0.12c-0.48-0.26-0.65-0.87-0.38-1.34c1.22-2.19,3.97-4.33,6.05-5.3
		c0.49-0.23,1.08-0.02,1.31,0.48c0.23,0.49,0.02,1.08-0.48,1.31c-1.75,0.82-4.16,2.67-5.16,4.47
		C49.67,38.24,49.33,38.43,48.98,38.43z"/>
	<path class="st1" d="M58.07,36.16c-1.89,0-3.67-1.18-4.34-3.07l-5.63-15.96c-0.84-2.39,0.42-5.02,2.81-5.86l0.25-0.09
		c1.17-0.41,2.43-0.34,3.55,0.2c1.12,0.54,1.95,1.49,2.34,2.67l5.37,16.05c0.79,2.36-0.48,4.96-2.83,5.79
		C59.09,36.07,58.58,36.16,58.07,36.16z M52.7,12.89c-0.29,0-0.59,0.05-0.87,0.15l-0.26,0.09c-1.36,0.48-2.08,1.98-1.6,3.34
		l5.63,15.96c0.48,1.36,1.98,2.08,3.34,1.6c1.34-0.47,2.06-1.95,1.61-3.3l-5.37-16.05c-0.22-0.67-0.7-1.21-1.33-1.52
		C53.48,12.98,53.09,12.89,52.7,12.89z"/>
	<path class="st1" d="M6.36,39.96c-0.62,0-1.24-0.12-1.82-0.38L4.11,39.4C1.9,38.45,0.8,35.92,1.6,33.65l5.26-14.91
		c0.42-1.2,1.33-2.17,2.49-2.68c1.16-0.51,2.5-0.51,3.66-0.01l0.43,0.19c2.21,0.95,3.31,3.48,2.51,5.75l-5.26,14.91
		c-0.42,1.2-1.33,2.17-2.49,2.68C7.62,39.83,6.99,39.96,6.36,39.96z M11.19,17.65c-0.36,0-0.71,0.07-1.05,0.22
		c-0.67,0.29-1.18,0.84-1.42,1.53L3.46,34.31C3,35.6,3.63,37.04,4.89,37.59l0.43,0.19c0.67,0.29,1.41,0.29,2.09,0
		c0.67-0.29,1.18-0.84,1.42-1.53l5.26-14.91c0.46-1.29-0.17-2.73-1.43-3.28l-0.43-0.19C11.89,17.72,11.54,17.65,11.19,17.65z"/>
	<path class="st0" d="M39.97,51.52c-0.6,0-1.22-0.13-1.8-0.41l-3.73-1.79c-0.49-0.24-0.7-0.83-0.46-1.32
		c0.24-0.49,0.82-0.7,1.32-0.46l3.73,1.79c1.09,0.52,2.41,0.06,2.94-1.04c0.49-1.02,0.1-2.27-0.89-2.85
		c-0.37-0.21-0.56-0.63-0.47-1.05c0.08-0.41,0.42-0.73,0.84-0.79l0.1-0.01c0.19-0.03,0.39,0,0.56,0.09
		c0.53,0.26,1.13,0.29,1.68,0.09c0.56-0.2,1-0.6,1.26-1.13c0.46-0.96,0.17-2.11-0.69-2.73c-0.42-0.3-0.53-0.87-0.27-1.31l0.05-0.08
		c0.26-0.43,0.79-0.59,1.24-0.39c1.01,0.45,2.21-0.05,2.73-1.13c0.44-0.93,0.23-2.03-0.51-2.63c-0.14-0.11-0.25-0.18-0.37-0.24
		l-9.67-4.64c-1.06-0.5-2.97,0.16-3.47,1.2c-0.24,0.49-0.83,0.7-1.32,0.46c-0.49-0.24-0.7-0.83-0.46-1.32
		c0.97-2.03,4.05-3.11,6.1-2.12l9.67,4.63c0.25,0.12,0.49,0.27,0.72,0.46c0.02,0.02,0.05,0.04,0.07,0.06
		c1.44,1.19,1.86,3.23,1.02,4.99c-0.6,1.25-1.71,2.08-2.94,2.33c0.4,1.04,0.38,2.24-0.13,3.31c-0.48,1.01-1.33,1.77-2.38,2.14
		c-0.19,0.07-0.39,0.12-0.58,0.16c0.42,1.05,0.42,2.26-0.1,3.34C43.02,50.65,41.53,51.52,39.97,51.52z"/>
	<path class="st0" d="M34.86,49.42c-0.16,0-0.33-0.04-0.48-0.12l-5.73-3.16c-0.48-0.26-0.65-0.86-0.39-1.34
		c0.26-0.48,0.87-0.65,1.34-0.39l5.73,3.16c0.48,0.26,0.65,0.86,0.39,1.34C35.55,49.23,35.21,49.42,34.86,49.42z"/>
	<path class="st0" d="M41.56,45.58c-0.15,0-0.31-0.04-0.45-0.11l-9.17-4.76c-0.48-0.25-0.67-0.85-0.42-1.33
		c0.25-0.49,0.85-0.67,1.33-0.42l9.17,4.76c0.48,0.25,0.67,0.85,0.42,1.33C42.26,45.39,41.92,45.58,41.56,45.58z"/>
	<path class="st0" d="M44.96,40.03c-0.15,0-0.31-0.04-0.46-0.11l-7.98-4.17c-0.48-0.25-0.67-0.85-0.42-1.33
		c0.25-0.48,0.85-0.67,1.33-0.42l7.98,4.17c0.48,0.25,0.67,0.85,0.42,1.33C45.66,39.84,45.32,40.03,44.96,40.03z"/>
	<path class="st0" d="M33.84,53.09c-0.27,0-0.57-0.04-0.9-0.12C30,52.21,19.51,47.2,13.41,41.37c-0.59-0.56-1.05-1.11-1.49-1.64
		c-0.78-0.93-1.45-1.73-2.58-2.27c-0.49-0.24-0.7-0.83-0.46-1.32c0.24-0.49,0.83-0.7,1.32-0.46c1.52,0.73,2.39,1.77,3.24,2.78
		c0.41,0.49,0.84,1,1.34,1.48c5.92,5.66,16.19,10.47,18.66,11.12c0.55,0.14,0.82-0.01,1-0.17c0.32-0.28,0.34-0.65,0.32-0.85
		c-0.04-0.41-0.29-0.78-0.65-0.97l-4.05-2.17c-0.48-0.26-0.66-0.86-0.41-1.34c0.26-0.48,0.86-0.66,1.34-0.41l4.05,2.17
		c0.94,0.5,1.57,1.43,1.68,2.5c0.11,1-0.25,1.93-1,2.57C35.32,52.74,34.69,53.09,33.84,53.09z"/>
	<path class="st0" d="M20.99,24.12c-1.93,0-3.9-0.38-5.36-1.08l-1.03-0.47c-0.5-0.23-0.71-0.82-0.48-1.31
		c0.23-0.5,0.81-0.71,1.31-0.48l1.04,0.48c1.7,0.81,4.36,1.11,6.49,0.72c0.54-0.1,1.05,0.26,1.15,0.79c0.1,0.54-0.26,1.05-0.8,1.15
		C22.57,24.06,21.79,24.12,20.99,24.12z"/>
	<path class="st0" d="M13.31,40.83c-0.11,0-0.23-0.02-0.34-0.06c-0.51-0.19-0.78-0.75-0.59-1.27l4.07-11.13
		c0.19-0.51,0.76-0.78,1.27-0.59c0.51,0.19,0.78,0.75,0.59,1.27l-4.07,11.13C14.09,40.58,13.71,40.83,13.31,40.83z"/>
	<path class="st0" d="M47.48,28.61c-0.4,0-0.78-0.25-0.93-0.65l-3.04-8.39c-0.19-0.51,0.08-1.08,0.59-1.26
		c0.51-0.19,1.08,0.08,1.26,0.59l3.03,8.39c0.19,0.51-0.08,1.08-0.59,1.26C47.7,28.59,47.59,28.61,47.48,28.61z"/>
</g>
</svg>
