<?xml version="1.0" encoding="utf-8"?>
<!-- Generator: Adobe Illustrator 24.0.1, SVG Export Plug-In . SVG Version: 6.00 Build 0)  -->
<svg version="1.1" id="Layer_1" xmlns="http://www.w3.org/2000/svg" xmlns:xlink="http://www.w3.org/1999/xlink" x="0px" y="0px"
	 viewBox="0 0 40 40" style="enable-background:new 0 0 40 40;" xml:space="preserve">
<style type="text/css">
	.st0{opacity:0.15;fill:#56CFBC;}
	.st1{fill:#56CFBC;}
</style>
<path class="st0" d="M3.33,0h33.33C38.51,0,40,1.49,40,3.33v33.33c0,1.84-1.49,3.33-3.33,3.33H3.33C1.49,40,0,38.51,0,36.67V3.33
	C0,1.49,1.49,0,3.33,0z"/>
<g>
	<path class="st1" d="M8.01,15.57c0.01,0.01,0.01,0.03,0.02,0.06s0.01,0.04,0.02,0.07c0,0.01,0,0.01,0,0.01
		c0.01,0.01,0.02,0.03,0.04,0.06c0.01,0.01,0.02,0.03,0.04,0.04l11.5,13.48l0,0c0.04,0.04,0.09,0.09,0.14,0.12c0,0,0.01,0,0.01,0
		c0,0,0,0,0.01,0.01c0.01,0,0.01,0,0.02,0c0.06,0.03,0.12,0.04,0.18,0.04s0.12-0.01,0.18-0.04h0.02c0.01-0.01,0.01-0.01,0.01-0.01
		h0.02c0.05-0.03,0.09-0.07,0.14-0.12l0,0l11.5-13.48c0.01-0.01,0.03-0.03,0.04-0.04c0.01-0.03,0.03-0.04,0.04-0.06c0,0,0,0,0-0.01
		c0.01-0.03,0.02-0.04,0.03-0.07c0-0.03,0.01-0.04,0.01-0.06c0,0,0-0.04,0-0.07c0-0.01,0-0.04,0-0.07c0-0.01-0.01-0.03-0.01-0.04
		c-0.01-0.03-0.01-0.06-0.03-0.07c0-0.01,0-0.01,0-0.01c-0.01-0.01-0.02-0.04-0.04-0.06c-0.01-0.01-0.02-0.03-0.04-0.04l-3.83-4.5
		l0,0c-0.05-0.06-0.11-0.1-0.17-0.13h-0.01c-0.06-0.03-0.13-0.04-0.2-0.04h-7.67h-7.68c-0.19,0-0.35,0.1-0.43,0.27l-3.75,4.4
		c-0.01,0.01-0.02,0.03-0.04,0.04c-0.01,0.01-0.03,0.04-0.04,0.06c0,0,0,0,0,0.01c-0.01,0.01-0.01,0.04-0.02,0.07
		c-0.01,0.01-0.01,0.03-0.02,0.04c0,0.03,0,0.06,0,0.07C8.01,15.53,8.01,15.56,8.01,15.57z M23.19,15.99L20,27.21l-3.21-11.22H23.19
		z M17.2,15.03l2.79-3.27l2.78,3.27H17.2z M23.83,14.77l-2.78-3.27h5.56L23.83,14.77z M16.17,14.75l-2.78-3.26h5.54L16.17,14.75z
		 M15.78,15.99l3.14,10.99L9.55,15.99H15.78z M21.07,26.98l3.12-10.99h6.26L21.07,26.98z M24.88,15.03l2.78-3.27l2.79,3.27H24.88z
		 M12.32,11.77l2.78,3.26H9.55L12.32,11.77z"/>
</g>
</svg>
